<?xml version="1.0" encoding="UTF-8" standalone="no"?>
<!DOCTYPE svg PUBLIC "-//W3C//DTD SVG 1.1//EN"
 "http://www.w3.org/Graphics/SVG/1.1/DTD/svg11.dtd">
<!-- Generated by graphviz version 2.44.2~dev.20201002.0216 (20201002.0216)
 -->
<!-- Pages: 1 -->
<svg width="1562pt" height="538pt"
 viewBox="0.00 0.00 1562.00 537.93" xmlns="http://www.w3.org/2000/svg" xmlns:xlink="http://www.w3.org/1999/xlink">
<g id="graph0" class="graph" transform="scale(1 1) rotate(0) translate(4 533.93)">
<!-- order1 -->
<g id="node1" class="node">
<title>order1</title>
<ellipse fill="#ba0d39" stroke="#ba0d39" cx="725" cy="-497.71" rx="32.43" ry="32.43"/>
<text text-anchor="middle" x="725" y="-494.31" font-family="Times New Roman,serif" font-size="13.00">order1</text>
</g>
<!-- t1 -->
<g id="node4" class="node">
<title>t1</title>
<polygon fill="none" stroke="black" points="722,-429.5 466,-429.5 466,-381.5 722,-381.5 722,-429.5"/>
<text text-anchor="middle" x="594" y="-396.7" font-family="Times New Roman,serif" font-size="36.00">Place Order &#160;(t1)</text>
</g>
<!-- order1&#45;&gt;t1 -->
<g id="edge1" class="edge">
<title>order1:&#45;&gt;t1:</title>
<path fill="none" stroke="#ba0d39" d="M697.24,-481.2C677.5,-468.66 650.99,-450.65 629.71,-435.46"/>
<polygon fill="#ba0d39" stroke="#ba0d39" points="631.7,-432.58 621.54,-429.58 627.61,-438.26 631.7,-432.58"/>
</g>
<!-- t2 -->
<g id="node5" class="node">
<title>t2</title>
<polygon fill="none" stroke="black" points="298,-250.12 0,-250.12 0,-202.12 298,-202.12 298,-250.12"/>
<text text-anchor="middle" x="149" y="-217.32" font-family="Times New Roman,serif" font-size="36.00">Confirm Order &#160;(t2)</text>
</g>
<!-- order1&#45;&gt;t2 -->
<g id="edge5" class="edge">
<title>order1:&#45;&gt;t2:</title>
<path fill="none" stroke="#ba0d39" d="M692.91,-493.03C639.79,-485.61 531.9,-466.31 448,-429.5 341.78,-382.88 231.53,-300.79 179.43,-256.85"/>
<polygon fill="#ba0d39" stroke="#ba0d39" points="181.46,-253.97 171.58,-250.14 176.91,-259.29 181.46,-253.97"/>
</g>
<!-- t9 -->
<g id="node12" class="node">
<title>t9</title>
<polygon fill="none" stroke="black" points="972,-429.5 740,-429.5 740,-381.5 972,-381.5 972,-429.5"/>
<text text-anchor="middle" x="856" y="-396.7" font-family="Times New Roman,serif" font-size="36.00">Pay Order &#160;(t9)</text>
</g>
<!-- order1&#45;&gt;t9 -->
<g id="edge27" class="edge">
<title>order1:&#45;&gt;t9:</title>
<path fill="none" stroke="#ba0d39" d="M749.27,-476.01C765.79,-463.91 788.06,-448.44 808.02,-435.17"/>
<polygon fill="#ba0d39" stroke="#ba0d39" points="810,-438.06 816.42,-429.64 806.14,-432.22 810,-438.06"/>
</g>
<!-- t10 -->
<g id="node13" class="node">
<title>t10</title>
<polygon fill="none" stroke="black" points="1366,-429.5 990,-429.5 990,-381.5 1366,-381.5 1366,-429.5"/>
<text text-anchor="middle" x="1178" y="-396.7" font-family="Times New Roman,serif" font-size="36.00">Payment Reminder &#160;(t10)</text>
</g>
<!-- order1&#45;&gt;t10 -->
<g id="edge29" class="edge">
<title>order1:&#45;&gt;t10:</title>
<path fill="none" stroke="#ba0d39" d="M756.34,-489.71C815.45,-477.37 946.12,-451.19 1046.46,-431.47"/>
<polygon fill="#ba0d39" stroke="#ba0d39" points="1047.25,-434.89 1056.38,-429.53 1045.9,-428.02 1047.25,-434.89"/>
</g>
<!-- item1 -->
<g id="node2" class="node">
<title>item1</title>
<ellipse fill="#05b202" stroke="#05b202" cx="643" cy="-315.81" rx="29.88" ry="29.88"/>
<text text-anchor="middle" x="643" y="-312.41" font-family="Times New Roman,serif" font-size="13.00">item1</text>
</g>
<!-- item1&#45;&gt;t1 -->
<g id="edge3" class="edge">
<title>item1:&#45;&gt;t1:</title>
<path fill="none" stroke="#05b202" d="M635.7,-345.27C631.12,-354.37 625.53,-364.48 619.92,-373.86"/>
<path fill="none" stroke="white" d="M633.92,-344.37C629.37,-353.41 623.78,-363.52 618.21,-372.83"/>
<path fill="none" stroke="#05b202" d="M632.13,-343.47C627.62,-352.44 622.03,-362.55 616.49,-371.8"/>
<polygon fill="#05b202" stroke="#05b202" points="615.16,-371.11 612.9,-381.46 621.12,-374.78 615.16,-371.11"/>
</g>
<!-- item1&#45;&gt;t2 -->
<g id="edge7" class="edge">
<title>item1:&#45;&gt;t2:</title>
<path fill="none" stroke="#05b202" d="M613.21,-312.13C549.43,-301.39 395.65,-274.27 282.37,-253.92"/>
<path fill="none" stroke="white" d="M613.55,-310.15C549.78,-299.42 396,-272.3 282.73,-251.95"/>
<path fill="none" stroke="#05b202" d="M613.88,-308.18C550.13,-297.45 396.34,-270.33 283.08,-249.98"/>
<polygon fill="#05b202" stroke="#05b202" points="283.05,-248.45 272.59,-250.12 281.81,-255.34 283.05,-248.45"/>
</g>
<!-- t3 -->
<g id="node6" class="node">
<title>t3</title>
<polygon fill="none" stroke="black" points="1554,-250.12 1228,-250.12 1228,-202.12 1554,-202.12 1554,-250.12"/>
<text text-anchor="middle" x="1391" y="-217.32" font-family="Times New Roman,serif" font-size="36.00">Item out of stock &#160;(t3)</text>
</g>
<!-- item1&#45;&gt;t3 -->
<g id="edge9" class="edge">
<title>item1:&#45;&gt;t3:</title>
<path fill="none" stroke="#05b202" d="M672.48,-311.17C756.17,-301.63 1001.23,-274.9 1205,-250.12 1209.15,-249.61 1213.36,-249.1 1217.6,-248.57"/>
<polygon fill="#05b202" stroke="#05b202" points="1218.08,-252.04 1227.57,-247.34 1217.22,-245.09 1218.08,-252.04"/>
</g>
<!-- t4 -->
<g id="node7" class="node">
<title>t4</title>
<polygon fill="none" stroke="black" points="626.5,-48 389.5,-48 389.5,0 626.5,0 626.5,-48"/>
<text text-anchor="middle" x="508" y="-15.2" font-family="Times New Roman,serif" font-size="36.00">End Route &#160;(t4)</text>
</g>
<!-- item1&#45;&gt;t4 -->
<g id="edge11" class="edge">
<title>item1:&#45;&gt;t4:</title>
<path fill="none" stroke="#05b202" d="M612.85,-314.85C545.23,-309.45 385.54,-292.03 352.43,-251.36 299.91,-182.29 395.84,-96.27 458.87,-52.09"/>
<path fill="none" stroke="white" d="M613.01,-312.85C545.45,-307.46 385.75,-290.04 354,-250.12 301.24,-183.78 397.17,-97.76 460.01,-53.73"/>
<path fill="none" stroke="#05b202" d="M613.17,-310.86C545.67,-305.47 385.97,-288.06 355.57,-248.87 302.58,-185.27 398.51,-99.24 461.16,-55.37"/>
<polygon fill="#05b202" stroke="#05b202" points="462.01,-56.61 468.26,-48.06 458.04,-50.84 462.01,-56.61"/>
</g>
<!-- t5 -->
<g id="node8" class="node">
<title>t5</title>
<polygon fill="none" stroke="black" points="647.5,-250.12 372.5,-250.12 372.5,-202.12 647.5,-202.12 647.5,-250.12"/>
<text text-anchor="middle" x="510" y="-217.32" font-family="Times New Roman,serif" font-size="36.00">Reorder Item &#160;(t5)</text>
</g>
<!-- item1&#45;&gt;t5 -->
<g id="edge15" class="edge">
<title>item1:&#45;&gt;t5:</title>
<path fill="none" stroke="#05b202" d="M617.16,-301.11C597.24,-289.06 569.61,-271.13 547.33,-255.94"/>
<polygon fill="#05b202" stroke="#05b202" points="549.31,-253.05 539.09,-250.27 545.34,-258.82 549.31,-253.05"/>
</g>
<!-- t6 -->
<g id="node9" class="node">
<title>t6</title>
<polygon fill="none" stroke="black" points="888,-250.12 666,-250.12 666,-202.12 888,-202.12 888,-250.12"/>
<text text-anchor="middle" x="777" y="-217.32" font-family="Times New Roman,serif" font-size="36.00">Pick Item &#160;(t6)</text>
</g>
<!-- item1&#45;&gt;t6 -->
<g id="edge17" class="edge">
<title>item1:&#45;&gt;t6:</title>
<path fill="none" stroke="#05b202" d="M665.78,-296.21C682.63,-284.41 706.07,-268.92 727.13,-255.59"/>
<polygon fill="#05b202" stroke="#05b202" points="729.07,-258.5 735.67,-250.22 725.34,-252.58 729.07,-258.5"/>
</g>
<!-- t7 -->
<g id="node10" class="node">
<title>t7</title>
<polygon fill="none" stroke="black" points="1318.5,-48 1063.5,-48 1063.5,0 1318.5,0 1318.5,-48"/>
<text text-anchor="middle" x="1191" y="-15.2" font-family="Times New Roman,serif" font-size="36.00">Load Cargo &#160;(t7)</text>
</g>
<!-- item1&#45;&gt;t7 -->
<g id="edge19" class="edge">
<title>item1:&#45;&gt;t7:</title>
<path fill="none" stroke="#05b202" d="M672.66,-311C776.82,-304.77 1119.34,-282.66 1152.59,-248.7 1202.6,-199.68 1195.49,-107.52 1190.31,-58.33"/>
<path fill="none" stroke="white" d="M672.78,-313C776.95,-306.77 1119.46,-284.65 1154,-250.12 1204.59,-199.52 1197.48,-107.37 1192.3,-58.12"/>
<path fill="none" stroke="#05b202" d="M672.89,-315C777.08,-308.77 1119.59,-286.65 1155.41,-251.53 1206.59,-199.37 1199.47,-107.21 1194.29,-57.91"/>
<polygon fill="#05b202" stroke="#05b202" points="1195.76,-57.57 1191.22,-48 1188.8,-58.32 1195.76,-57.57"/>
</g>
<!-- t8 -->
<g id="node11" class="node">
<title>t8</title>
<polygon fill="none" stroke="black" points="1154,-250.12 906,-250.12 906,-202.12 1154,-202.12 1154,-250.12"/>
<text text-anchor="middle" x="1030" y="-217.32" font-family="Times New Roman,serif" font-size="36.00">Start Route &#160;(t8)</text>
</g>
<!-- item1&#45;&gt;t8 -->
<g id="edge23" class="edge">
<title>item1:&#45;&gt;t8:</title>
<path fill="none" stroke="#05b202" d="M671.23,-305.46C721.58,-293.44 828.04,-269.15 911.95,-250.42"/>
<path fill="none" stroke="white" d="M671.7,-307.41C722.02,-295.39 828.49,-271.1 912.38,-252.37"/>
<path fill="none" stroke="#05b202" d="M672.16,-309.35C722.47,-297.34 828.93,-273.05 912.82,-254.32"/>
<polygon fill="#05b202" stroke="#05b202" points="913.24,-255.76 922.24,-250.17 911.71,-248.93 913.24,-255.76"/>
</g>
<!-- delivery1 -->
<g id="node3" class="node">
<title>delivery1</title>
<ellipse fill="#a13ccd" stroke="#a13ccd" cx="980" cy="-125.06" rx="41.12" ry="41.12"/>
<text text-anchor="middle" x="980" y="-121.66" font-family="Times New Roman,serif" font-size="13.00">delivery1</text>
</g>
<!-- delivery1&#45;&gt;t4 -->
<g id="edge13" class="edge">
<title>delivery1:&#45;&gt;t4:</title>
<path fill="none" stroke="#a13ccd" d="M939.53,-116.37C869.74,-102.34 724.64,-72.04 621.97,-50.17"/>
<polygon fill="#a13ccd" stroke="#a13ccd" points="622.69,-46.74 612.18,-48.08 621.23,-53.59 622.69,-46.74"/>
</g>
<!-- delivery1&#45;&gt;t7 -->
<g id="edge21" class="edge">
<title>delivery1:&#45;&gt;t7:</title>
<path fill="none" stroke="#a13ccd" d="M1015.7,-104.72C1045.97,-89.84 1089.99,-69.07 1126.39,-52.46"/>
<polygon fill="#a13ccd" stroke="#a13ccd" points="1128.3,-55.44 1135.95,-48.12 1125.4,-49.07 1128.3,-55.44"/>
</g>
<!-- delivery1&#45;&gt;t8 -->
<g id="edge25" class="edge">
<title>delivery1:&#45;&gt;t8:</title>
<path fill="none" stroke="#a13ccd" d="M1003.17,-159.27C1009.04,-169.98 1015.01,-181.83 1019.92,-192.5"/>
<polygon fill="#a13ccd" stroke="#a13ccd" points="1016.84,-194.18 1024.1,-201.89 1023.23,-191.33 1016.84,-194.18"/>
</g>
<!-- t11 -->
<g id="node14" class="node">
<title>t11</title>
<polygon fill="none" stroke="black" points="1045,-48 817,-48 817,0 1045,0 1045,-48"/>
<text text-anchor="middle" x="931" y="-15.2" font-family="Times New Roman,serif" font-size="36.00">Fuel Car &#160;(t11)</text>
</g>
<!-- delivery1&#45;&gt;t11 -->
<g id="edge31" class="edge">
<title>delivery1:&#45;&gt;t11:</title>
<path fill="none" stroke="#a13ccd" d="M957.13,-90.8C951.35,-80.04 945.47,-68.13 940.66,-57.43"/>
<polygon fill="#a13ccd" stroke="#a13ccd" points="943.77,-55.8 936.58,-48.02 937.35,-58.58 943.77,-55.8"/>
</g>
<!-- t1&#45;&gt;order1 -->
<g id="edge2" class="edge">
<title>t1:&#45;&gt;order1:</title>
<path fill="none" stroke="#ba0d39" d="M633.58,-429.64C652.38,-441.94 674.52,-457.13 692.35,-469.94"/>
<polygon fill="#ba0d39" stroke="#ba0d39" points="690.58,-472.97 700.73,-476.01 694.69,-467.31 690.58,-472.97"/>
</g>
<!-- t1&#45;&gt;item1 -->
<g id="edge4" class="edge">
<title>t1:&#45;&gt;item1:</title>
<path fill="none" stroke="#05b202" d="M599.05,-380.59C604.05,-370.25 610.73,-358.02 617.4,-346.9"/>
<path fill="none" stroke="white" d="M600.85,-381.46C605.8,-371.21 612.48,-358.98 619.11,-347.93"/>
<path fill="none" stroke="#05b202" d="M602.65,-382.33C607.56,-372.16 614.24,-359.94 620.83,-348.96"/>
<polygon fill="#05b202" stroke="#05b202" points="622.12,-349.74 624.39,-339.39 616.16,-346.06 622.12,-349.74"/>
</g>
<!-- t2&#45;&gt;order1 -->
<g id="edge6" class="edge">
<title>t2:&#45;&gt;order1:</title>
<path fill="none" stroke="#ba0d39" d="M182.1,-250.14C237.72,-291.9 354.09,-380.39 466,-429.5 539.3,-461.66 630.92,-480.45 683.33,-489.64"/>
<polygon fill="#ba0d39" stroke="#ba0d39" points="682.82,-493.1 693.27,-491.35 684.01,-486.21 682.82,-493.1"/>
</g>
<!-- t2&#45;&gt;item1 -->
<g id="edge8" class="edge">
<title>t2:&#45;&gt;item1:</title>
<path fill="none" stroke="#05b202" d="M285.06,-248.17C392.76,-267.03 536.08,-292.59 604.26,-305.18"/>
<path fill="none" stroke="white" d="M284.72,-250.14C392.41,-269 535.73,-294.56 603.89,-307.15"/>
<path fill="none" stroke="#05b202" d="M284.37,-252.11C392.06,-270.97 535.38,-296.53 603.53,-309.12"/>
<polygon fill="#05b202" stroke="#05b202" points="603.31,-310.6 613.78,-308.99 604.59,-303.72 603.31,-310.6"/>
</g>
<!-- t3&#45;&gt;item1 -->
<g id="edge10" class="edge">
<title>t3:&#45;&gt;item1:</title>
<path fill="none" stroke="#05b202" d="M1227.64,-249.55C1226.08,-249.74 1224.54,-249.93 1223,-250.12 1020.36,-274.76 776.87,-301.34 682.69,-311.01"/>
<polygon fill="#05b202" stroke="#05b202" points="682.07,-307.56 672.48,-312.05 682.78,-314.52 682.07,-307.56"/>
</g>
<!-- t4&#45;&gt;item1 -->
<g id="edge12" class="edge">
<title>t4:&#45;&gt;item1:</title>
<path fill="none" stroke="#05b202" d="M480.06,-49.65C425.38,-91.52 318.17,-182.33 373.57,-248.87 401.06,-284.35 535.11,-302.04 603.3,-309.04"/>
<path fill="none" stroke="white" d="M478.85,-48.06C424.08,-89.99 316.87,-180.81 372,-250.12 400.8,-286.33 534.85,-304.03 603.1,-311.03"/>
<path fill="none" stroke="#05b202" d="M477.63,-46.47C422.79,-88.47 315.58,-179.28 370.43,-251.36 400.54,-288.31 534.59,-306.01 602.89,-313.02"/>
<polygon fill="#05b202" stroke="#05b202" points="602.76,-314.51 613.06,-312.02 603.46,-307.55 602.76,-314.51"/>
</g>
<!-- t4&#45;&gt;delivery1 -->
<g id="edge14" class="edge">
<title>t4:&#45;&gt;delivery1:</title>
<path fill="none" stroke="#a13ccd" d="M623.61,-48.04C721.66,-68.29 857.51,-96.89 929.94,-112.61"/>
<polygon fill="#a13ccd" stroke="#a13ccd" points="929.63,-116.12 940.15,-114.83 931.12,-109.28 929.63,-116.12"/>
</g>
<!-- t5&#45;&gt;item1 -->
<g id="edge16" class="edge">
<title>t5:&#45;&gt;item1:</title>
<path fill="none" stroke="#05b202" d="M551.06,-250.22C570.7,-262.56 593.77,-277.74 611.94,-290.29"/>
<polygon fill="#05b202" stroke="#05b202" points="610.23,-293.36 620.43,-296.21 614.23,-287.62 610.23,-293.36"/>
</g>
<!-- t6&#45;&gt;item1 -->
<g id="edge18" class="edge">
<title>t6:&#45;&gt;item1:</title>
<path fill="none" stroke="#05b202" d="M747.65,-250.27C726.98,-264.5 699.36,-282.49 677.62,-295.86"/>
<polygon fill="#05b202" stroke="#05b202" points="675.72,-292.92 669,-301.11 679.36,-298.9 675.72,-292.92"/>
</g>
<!-- t7&#45;&gt;item1 -->
<g id="edge20" class="edge">
<title>t7:&#45;&gt;item1:</title>
<path fill="none" stroke="#05b202" d="M1203.19,-47.46C1216.11,-93.38 1228.29,-195.58 1173.41,-251.53 1137.86,-286.38 800.42,-308.42 683,-314.85"/>
<path fill="none" stroke="white" d="M1201.26,-48C1214.13,-93.62 1226.3,-195.81 1172,-250.12 1137.73,-284.38 800.29,-306.42 682.89,-312.85"/>
<path fill="none" stroke="#05b202" d="M1199.34,-48.55C1212.14,-93.86 1224.32,-196.05 1170.59,-248.7 1137.6,-282.39 800.16,-304.43 682.78,-310.85"/>
<polygon fill="#05b202" stroke="#05b202" points="682.67,-309.36 672.87,-313.39 683.05,-316.35 682.67,-309.36"/>
</g>
<!-- t7&#45;&gt;delivery1 -->
<g id="edge22" class="edge">
<title>t7:&#45;&gt;delivery1:</title>
<path fill="none" stroke="#a13ccd" d="M1147.61,-48.1C1112.56,-65.19 1063.43,-88.2 1027.37,-104.41"/>
<polygon fill="#a13ccd" stroke="#a13ccd" points="1025.73,-101.31 1018.03,-108.58 1028.59,-107.7 1025.73,-101.31"/>
</g>
<!-- t8&#45;&gt;item1 -->
<g id="edge24" class="edge">
<title>t8:&#45;&gt;item1:</title>
<path fill="none" stroke="#05b202" d="M934.67,-252.13C853.36,-270.88 740.94,-296.2 682.33,-308.87"/>
<path fill="none" stroke="white" d="M934.22,-250.19C852.93,-268.93 740.5,-294.25 681.91,-306.91"/>
<path fill="none" stroke="#05b202" d="M933.77,-248.24C852.49,-266.97 740.06,-292.3 681.48,-304.96"/>
<polygon fill="#05b202" stroke="#05b202" points="680.99,-303.53 671.95,-309.05 682.46,-310.37 680.99,-303.53"/>
</g>
<!-- t8&#45;&gt;delivery1 -->
<g id="edge26" class="edge">
<title>t8:&#45;&gt;delivery1:</title>
<path fill="none" stroke="#a13ccd" d="M1012.46,-201.89C1007.45,-193.31 1002.07,-183.25 997.1,-173.3"/>
<polygon fill="#a13ccd" stroke="#a13ccd" points="1000.22,-171.71 992.69,-164.25 993.93,-174.78 1000.22,-171.71"/>
</g>
<!-- t9&#45;&gt;order1 -->
<g id="edge28" class="edge">
<title>t9:&#45;&gt;order1:</title>
<path fill="none" stroke="#ba0d39" d="M828.46,-429.58C808.87,-443.81 782.51,-461.93 761.23,-475.75"/>
<polygon fill="#ba0d39" stroke="#ba0d39" points="759.28,-472.85 752.76,-481.2 763.07,-478.74 759.28,-472.85"/>
</g>
<!-- t10&#45;&gt;order1 -->
<g id="edge30" class="edge">
<title>t10:&#45;&gt;order1:</title>
<path fill="none" stroke="#ba0d39" d="M1068.36,-429.52C971.25,-449.16 834.71,-476.22 766.74,-489.18"/>
<polygon fill="#ba0d39" stroke="#ba0d39" points="765.99,-485.76 756.82,-491.07 767.3,-492.64 765.99,-485.76"/>
</g>
<!-- t11&#45;&gt;delivery1 -->
<g id="edge32" class="edge">
<title>t11:&#45;&gt;delivery1:</title>
<path fill="none" stroke="#a13ccd" d="M948.19,-48.02C953.12,-56.61 958.42,-66.7 963.31,-76.68"/>
<polygon fill="#a13ccd" stroke="#a13ccd" points="960.18,-78.25 967.65,-85.76 966.49,-75.23 960.18,-78.25"/>
</g>
</g>
</svg>
