<?xml version="1.0" encoding="UTF-8" standalone="no"?>
<!DOCTYPE svg PUBLIC "-//W3C//DTD SVG 1.1//EN"
 "http://www.w3.org/Graphics/SVG/1.1/DTD/svg11.dtd">
<!-- Generated by graphviz version 2.44.2~dev.20201002.0216 (20201002.0216)
 -->
<!-- Pages: 1 -->
<svg width="986pt" height="1636pt"
 viewBox="0.00 0.00 985.50 1636.31" xmlns="http://www.w3.org/2000/svg" xmlns:xlink="http://www.w3.org/1999/xlink">
<g id="graph0" class="graph" transform="scale(1 1) rotate(0) translate(4 1632.31)">
<!-- item1 -->
<g id="node1" class="node">
<title>item1</title>
<ellipse fill="#05b202" stroke="#05b202" cx="414" cy="-1596.1" rx="29.88" ry="29.88"/>
<text text-anchor="middle" x="414" y="-1592.7" font-family="Times New Roman,serif" font-size="13.00">item1</text>
</g>
<!-- t1 -->
<g id="node24" class="node">
<title>t1</title>
<polygon fill="none" stroke="black" points="582,-1527.88 326,-1527.88 326,-1479.88 582,-1479.88 582,-1527.88"/>
<text text-anchor="middle" x="454" y="-1495.08" font-family="Times New Roman,serif" font-size="36.00">Place Order &#160;(t1)</text>
</g>
<!-- item1&#45;&gt;t1 -->
<g id="edge1" class="edge">
<title>item1:&#45;&gt;t1:</title>
<path fill="none" stroke="#05b202" d="M423.96,-1567.71C428.29,-1557.94 433.24,-1546.77 437.78,-1536.54"/>
<path fill="none" stroke="white" d="M425.78,-1568.52C430.12,-1558.75 435.07,-1547.58 439.6,-1537.35"/>
<path fill="none" stroke="#05b202" d="M427.61,-1569.33C431.94,-1559.56 436.9,-1548.39 441.43,-1538.16"/>
<polygon fill="#05b202" stroke="#05b202" points="442.94,-1538.47 443.79,-1527.91 436.54,-1535.63 442.94,-1538.47"/>
</g>
<!-- item2 -->
<g id="node2" class="node">
<title>item2</title>
<ellipse fill="none" stroke="#05b202" cx="414" cy="-1411.67" rx="29.88" ry="29.88"/>
<text text-anchor="middle" x="414" y="-1408.27" font-family="Times New Roman,serif" font-size="13.00">item2</text>
</g>
<!-- t2 -->
<g id="node25" class="node">
<title>t2</title>
<polygon fill="none" stroke="black" points="603,-1343.45 305,-1343.45 305,-1295.45 603,-1295.45 603,-1343.45"/>
<text text-anchor="middle" x="454" y="-1310.65" font-family="Times New Roman,serif" font-size="36.00">Confirm Order &#160;(t2)</text>
</g>
<!-- item2&#45;&gt;t2 -->
<g id="edge3" class="edge">
<title>item2:&#45;&gt;t2:</title>
<path fill="none" stroke="#05b202" d="M423.96,-1383.28C428.29,-1373.51 433.24,-1362.34 437.78,-1352.11"/>
<path fill="none" stroke="white" d="M425.78,-1384.09C430.12,-1374.32 435.07,-1363.15 439.6,-1352.92"/>
<path fill="none" stroke="#05b202" d="M427.61,-1384.9C431.94,-1375.13 436.9,-1363.96 441.43,-1353.73"/>
<polygon fill="#05b202" stroke="#05b202" points="442.94,-1354.04 443.79,-1343.48 436.54,-1351.2 442.94,-1354.04"/>
</g>
<!-- item3 -->
<g id="node3" class="node">
<title>item3</title>
<ellipse fill="none" stroke="#05b202" cx="494" cy="-1227.24" rx="29.88" ry="29.88"/>
<text text-anchor="middle" x="494" y="-1223.84" font-family="Times New Roman,serif" font-size="13.00">item3</text>
</g>
<!-- t3 -->
<g id="node26" class="node">
<title>t3</title>
<polygon fill="#000000" stroke="black" points="477,-1153.02 423,-1153.02 423,-1117.02 477,-1117.02 477,-1153.02"/>
<text text-anchor="middle" x="450" y="-1131.32" font-family="Times New Roman,serif" font-size="14.00" fill="#ffffff">t3</text>
<text text-anchor="middle" x="410.5" y="-1156.82" font-family="Times New Roman,serif" font-size="14.00" fill="#ffffff">Test</text>
</g>
<!-- item3&#45;&gt;t3 -->
<g id="edge5" class="edge">
<title>item3:&#45;&gt;t3:</title>
<path fill="none" stroke="#05b202" d="M481.27,-1200.14C475.47,-1188.23 468.6,-1174.16 462.79,-1162.24"/>
<polygon fill="#05b202" stroke="#05b202" points="465.92,-1160.67 458.39,-1153.22 459.63,-1163.74 465.92,-1160.67"/>
</g>
<!-- t4 -->
<g id="node27" class="node">
<title>t4</title>
<polygon fill="none" stroke="black" points="821,-1159.02 495,-1159.02 495,-1111.02 821,-1111.02 821,-1159.02"/>
<text text-anchor="middle" x="658" y="-1126.22" font-family="Times New Roman,serif" font-size="36.00">Item out of stock &#160;(t4)</text>
</g>
<!-- item3&#45;&gt;t4 -->
<g id="edge6" class="edge">
<title>item3:&#45;&gt;t4:</title>
<path fill="none" stroke="#05b202" d="M519.62,-1212.14C542.97,-1199.3 578.14,-1179.95 607.18,-1163.97"/>
<polygon fill="#05b202" stroke="#05b202" points="608.9,-1167.02 615.98,-1159.14 605.53,-1160.89 608.9,-1167.02"/>
</g>
<!-- item4 -->
<g id="node4" class="node">
<title>item4</title>
<ellipse fill="#05b202" stroke="#05b202" cx="707" cy="-41.06" rx="29.88" ry="29.88"/>
<text text-anchor="middle" x="707" y="-37.66" font-family="Times New Roman,serif" font-size="13.00">item4</text>
</g>
<!-- item5 -->
<g id="node5" class="node">
<title>item5</title>
<ellipse fill="none" stroke="#05b202" cx="657" cy="-1042.8" rx="29.88" ry="29.88"/>
<text text-anchor="middle" x="657" y="-1039.4" font-family="Times New Roman,serif" font-size="13.00">item5</text>
</g>
<!-- t6 -->
<g id="node29" class="node">
<title>t6</title>
<polygon fill="#000000" stroke="black" points="684,-968.59 630,-968.59 630,-932.59 684,-932.59 684,-968.59"/>
<text text-anchor="middle" x="657" y="-946.89" font-family="Times New Roman,serif" font-size="14.00" fill="#ffffff">t6</text>
<text text-anchor="middle" x="617.5" y="-972.39" font-family="Times New Roman,serif" font-size="14.00" fill="#ffffff">Test</text>
</g>
<!-- item5&#45;&gt;t6 -->
<g id="edge10" class="edge">
<title>item5:&#45;&gt;t6:</title>
<path fill="none" stroke="#05b202" d="M657,-1012.76C657,-1001.87 657,-989.54 657,-978.81"/>
<polygon fill="#05b202" stroke="#05b202" points="660.5,-978.74 657,-968.74 653.5,-978.74 660.5,-978.74"/>
</g>
<!-- t7 -->
<g id="node30" class="node">
<title>t7</title>
<polygon fill="none" stroke="black" points="977.5,-974.59 702.5,-974.59 702.5,-926.59 977.5,-926.59 977.5,-974.59"/>
<text text-anchor="middle" x="840" y="-941.79" font-family="Times New Roman,serif" font-size="36.00">Reorder Item &#160;(t7)</text>
</g>
<!-- item5&#45;&gt;t7 -->
<g id="edge11" class="edge">
<title>item5:&#45;&gt;t7:</title>
<path fill="none" stroke="#05b202" d="M683.61,-1028.69C709.8,-1015.78 750.59,-995.67 783.95,-979.22"/>
<polygon fill="#05b202" stroke="#05b202" points="785.72,-982.25 793.14,-974.69 782.63,-975.97 785.72,-982.25"/>
</g>
<!-- item6 -->
<g id="node6" class="node">
<title>item6</title>
<ellipse fill="none" stroke="#05b202" cx="840" cy="-849.53" rx="29.88" ry="29.88"/>
<text text-anchor="middle" x="840" y="-846.13" font-family="Times New Roman,serif" font-size="13.00">item6</text>
</g>
<!-- t8 -->
<g id="node31" class="node">
<title>t8</title>
<polygon fill="none" stroke="black" points="951,-772.47 729,-772.47 729,-724.47 951,-724.47 951,-772.47"/>
<text text-anchor="middle" x="840" y="-739.67" font-family="Times New Roman,serif" font-size="36.00">Pick Item &#160;(t8)</text>
</g>
<!-- item6&#45;&gt;t8 -->
<g id="edge14" class="edge">
<title>item6:&#45;&gt;t8:</title>
<path fill="none" stroke="#05b202" d="M840,-819.61C840,-808.04 840,-794.64 840,-782.67"/>
<polygon fill="#05b202" stroke="#05b202" points="843.5,-782.61 840,-772.61 836.5,-782.61 843.5,-782.61"/>
</g>
<!-- item7 -->
<g id="node7" class="node">
<title>item7</title>
<ellipse fill="none" stroke="#05b202" cx="840" cy="-647.41" rx="29.88" ry="29.88"/>
<text text-anchor="middle" x="840" y="-644.01" font-family="Times New Roman,serif" font-size="13.00">item7</text>
</g>
<!-- t9 -->
<g id="node32" class="node">
<title>t9</title>
<polygon fill="none" stroke="black" points="967.5,-570.35 712.5,-570.35 712.5,-522.35 967.5,-522.35 967.5,-570.35"/>
<text text-anchor="middle" x="840" y="-537.55" font-family="Times New Roman,serif" font-size="36.00">Load Cargo &#160;(t9)</text>
</g>
<!-- item7&#45;&gt;t9 -->
<g id="edge16" class="edge">
<title>item7:&#45;&gt;t9:</title>
<path fill="none" stroke="#05b202" d="M838,-617.49C838,-605.92 838,-592.52 838,-580.56"/>
<path fill="none" stroke="white" d="M840,-617.49C840,-605.92 840,-592.52 840,-580.56"/>
<path fill="none" stroke="#05b202" d="M842,-617.49C842,-605.92 842,-592.52 842,-580.56"/>
<polygon fill="#05b202" stroke="#05b202" points="843.5,-580.49 840,-570.49 836.5,-580.49 843.5,-580.49"/>
</g>
<!-- item8 -->
<g id="node8" class="node">
<title>item8</title>
<ellipse fill="none" stroke="#05b202" cx="840" cy="-445.29" rx="29.88" ry="29.88"/>
<text text-anchor="middle" x="840" y="-441.89" font-family="Times New Roman,serif" font-size="13.00">item8</text>
</g>
<!-- t10 -->
<g id="node33" class="node">
<title>t10</title>
<polygon fill="none" stroke="black" points="884,-368.24 618,-368.24 618,-320.24 884,-320.24 884,-368.24"/>
<text text-anchor="middle" x="751" y="-335.44" font-family="Times New Roman,serif" font-size="36.00">Start Route &#160;(t10)</text>
</g>
<!-- item8&#45;&gt;t10 -->
<g id="edge18" class="edge">
<title>item8:&#45;&gt;t10:</title>
<path fill="none" stroke="#05b202" d="M818.76,-423.65C806.55,-410.06 790.69,-392.41 777.24,-377.43"/>
<path fill="none" stroke="white" d="M820.25,-422.31C808.04,-408.72 792.18,-391.07 778.72,-376.09"/>
<path fill="none" stroke="#05b202" d="M821.74,-420.97C809.53,-407.38 793.67,-389.74 780.21,-374.76"/>
<polygon fill="#05b202" stroke="#05b202" points="781.22,-373.64 771.94,-368.54 776.02,-378.32 781.22,-373.64"/>
</g>
<!-- item9 -->
<g id="node9" class="node">
<title>item9</title>
<ellipse fill="none" stroke="#05b202" cx="707" cy="-243.18" rx="29.88" ry="29.88"/>
<text text-anchor="middle" x="707" y="-239.78" font-family="Times New Roman,serif" font-size="13.00">item9</text>
</g>
<!-- t5 -->
<g id="node28" class="node">
<title>t5</title>
<polygon fill="none" stroke="black" points="869.5,-166.12 632.5,-166.12 632.5,-118.12 869.5,-118.12 869.5,-166.12"/>
<text text-anchor="middle" x="751" y="-133.32" font-family="Times New Roman,serif" font-size="36.00">End Route &#160;(t5)</text>
</g>
<!-- item9&#45;&gt;t5 -->
<g id="edge20" class="edge">
<title>item9:&#45;&gt;t5:</title>
<path fill="none" stroke="#05b202" d="M716.96,-214.82C722.4,-202.58 728.9,-187.93 734.64,-175.02"/>
<path fill="none" stroke="white" d="M718.79,-215.63C724.23,-203.39 730.73,-188.75 736.47,-175.83"/>
<path fill="none" stroke="#05b202" d="M720.62,-216.44C726.06,-204.2 732.56,-189.56 738.3,-176.64"/>
<polygon fill="#05b202" stroke="#05b202" points="739.81,-176.92 740.68,-166.36 733.42,-174.08 739.81,-176.92"/>
</g>
<!-- order1 -->
<g id="node10" class="node">
<title>order1</title>
<ellipse fill="none" stroke="#ba0d39" cx="494" cy="-1411.67" rx="32.43" ry="32.43"/>
<text text-anchor="middle" x="494" y="-1408.27" font-family="Times New Roman,serif" font-size="13.00">order1</text>
</g>
<!-- order1&#45;&gt;t2 -->
<g id="edge22" class="edge">
<title>order1:&#45;&gt;t2:</title>
<path fill="none" stroke="#ba0d39" d="M481.12,-1381.63C477.09,-1372.53 472.61,-1362.43 468.47,-1353.1"/>
<polygon fill="#ba0d39" stroke="#ba0d39" points="471.57,-1351.45 464.32,-1343.73 465.17,-1354.29 471.57,-1351.45"/>
</g>
<!-- order2 -->
<g id="node11" class="node">
<title>order2</title>
<ellipse fill="none" stroke="#ba0d39" cx="323" cy="-647.41" rx="32.43" ry="32.43"/>
<text text-anchor="middle" x="323" y="-644.01" font-family="Times New Roman,serif" font-size="13.00">order2</text>
</g>
<!-- t12 -->
<g id="node35" class="node">
<title>t12</title>
<polygon fill="none" stroke="black" points="448,-570.35 198,-570.35 198,-522.35 448,-522.35 448,-570.35"/>
<text text-anchor="middle" x="323" y="-537.55" font-family="Times New Roman,serif" font-size="36.00">Pay Order &#160;(t12)</text>
</g>
<!-- order2&#45;&gt;t12 -->
<g id="edge25" class="edge">
<title>order2:&#45;&gt;t12:</title>
<path fill="none" stroke="#ba0d39" d="M323,-615.07C323,-604.16 323,-591.88 323,-580.81"/>
<polygon fill="#ba0d39" stroke="#ba0d39" points="326.5,-580.64 323,-570.64 319.5,-580.64 326.5,-580.64"/>
</g>
<!-- order3 -->
<g id="node12" class="node">
<title>order3</title>
<ellipse fill="none" stroke="#ba0d39" cx="378" cy="-1042.8" rx="32.43" ry="32.43"/>
<text text-anchor="middle" x="378" y="-1039.4" font-family="Times New Roman,serif" font-size="13.00">order3</text>
</g>
<!-- t15 -->
<g id="node38" class="node">
<title>t15</title>
<polygon fill="none" stroke="black" points="376,-974.59 0,-974.59 0,-926.59 376,-926.59 376,-974.59"/>
<text text-anchor="middle" x="188" y="-941.79" font-family="Times New Roman,serif" font-size="36.00">Payment Reminder &#160;(t15)</text>
</g>
<!-- order3&#45;&gt;t15 -->
<g id="edge28" class="edge">
<title>order3:&#45;&gt;t15:</title>
<path fill="none" stroke="#ba0d39" d="M349.14,-1028.1C321.91,-1015.17 280.28,-995.41 246.15,-979.2"/>
<polygon fill="#ba0d39" stroke="#ba0d39" points="247.28,-975.86 236.75,-974.74 244.28,-982.19 247.28,-975.86"/>
</g>
<!-- order4 -->
<g id="node13" class="node">
<title>order4</title>
<ellipse fill="none" stroke="#ba0d39" cx="323" cy="-849.53" rx="32.43" ry="32.43"/>
<text text-anchor="middle" x="323" y="-846.13" font-family="Times New Roman,serif" font-size="13.00">order4</text>
</g>
<!-- t11 -->
<g id="node34" class="node">
<title>t11</title>
<polygon fill="#000000" stroke="black" points="350,-766.47 296,-766.47 296,-730.47 350,-730.47 350,-766.47"/>
<text text-anchor="middle" x="323" y="-744.77" font-family="Times New Roman,serif" font-size="14.00" fill="#ffffff">t11</text>
<text text-anchor="middle" x="283.5" y="-770.27" font-family="Times New Roman,serif" font-size="14.00" fill="#ffffff">Test</text>
</g>
<!-- order4&#45;&gt;t11 -->
<g id="edge31" class="edge">
<title>order4:&#45;&gt;t11:</title>
<path fill="none" stroke="#ba0d39" d="M323,-817.19C323,-804.21 323,-789.3 323,-776.78"/>
<polygon fill="#ba0d39" stroke="#ba0d39" points="326.5,-776.5 323,-766.5 319.5,-776.5 326.5,-776.5"/>
</g>
<!-- t14 -->
<g id="node37" class="node">
<title>t14</title>
<polygon fill="#000000" stroke="black" points="422,-766.47 368,-766.47 368,-730.47 422,-730.47 422,-766.47"/>
<text text-anchor="middle" x="395" y="-744.77" font-family="Times New Roman,serif" font-size="14.00" fill="#ffffff">t14</text>
<text text-anchor="middle" x="355.5" y="-770.27" font-family="Times New Roman,serif" font-size="14.00" fill="#ffffff">Test</text>
</g>
<!-- order4&#45;&gt;t14 -->
<g id="edge30" class="edge">
<title>order4:&#45;&gt;t14:</title>
<path fill="none" stroke="#ba0d39" d="M341.54,-823.02C352.34,-808.17 365.9,-789.51 376.66,-774.7"/>
<polygon fill="#ba0d39" stroke="#ba0d39" points="379.59,-776.63 382.63,-766.48 373.92,-772.52 379.59,-776.63"/>
</g>
<!-- order5 -->
<g id="node14" class="node">
<title>order5</title>
<ellipse fill="#ba0d39" stroke="#ba0d39" cx="494" cy="-1596.1" rx="32.43" ry="32.43"/>
<text text-anchor="middle" x="494" y="-1592.7" font-family="Times New Roman,serif" font-size="13.00">order5</text>
</g>
<!-- order5&#45;&gt;t1 -->
<g id="edge32" class="edge">
<title>order5:&#45;&gt;t1:</title>
<path fill="none" stroke="#ba0d39" d="M481.12,-1566.06C477.09,-1556.96 472.61,-1546.86 468.47,-1537.53"/>
<polygon fill="#ba0d39" stroke="#ba0d39" points="471.57,-1535.88 464.32,-1528.16 465.17,-1538.72 471.57,-1535.88"/>
</g>
<!-- order6 -->
<g id="node15" class="node">
<title>order6</title>
<ellipse fill="none" stroke="#ba0d39" cx="414" cy="-1227.24" rx="32.43" ry="32.43"/>
<text text-anchor="middle" x="414" y="-1223.84" font-family="Times New Roman,serif" font-size="13.00">order6</text>
</g>
<!-- order6&#45;&gt;t3 -->
<g id="edge34" class="edge">
<title>order6:&#45;&gt;t3:</title>
<path fill="none" stroke="#ba0d39" d="M425.79,-1196.7C430.14,-1185.79 435.04,-1173.5 439.29,-1162.85"/>
<polygon fill="#ba0d39" stroke="#ba0d39" points="442.67,-1163.83 443.13,-1153.24 436.17,-1161.23 442.67,-1163.83"/>
</g>
<!-- t13 -->
<g id="node36" class="node">
<title>t13</title>
<polygon fill="#000000" stroke="black" points="405,-1153.02 351,-1153.02 351,-1117.02 405,-1117.02 405,-1153.02"/>
<text text-anchor="middle" x="378" y="-1131.32" font-family="Times New Roman,serif" font-size="14.00" fill="#ffffff">t13</text>
<text text-anchor="middle" x="338.5" y="-1156.82" font-family="Times New Roman,serif" font-size="14.00" fill="#ffffff">Test</text>
</g>
<!-- order6&#45;&gt;t13 -->
<g id="edge35" class="edge">
<title>order6:&#45;&gt;t13:</title>
<path fill="none" stroke="#ba0d39" d="M402.21,-1196.7C397.86,-1185.79 392.96,-1173.5 388.71,-1162.85"/>
<polygon fill="#ba0d39" stroke="#ba0d39" points="391.83,-1161.23 384.87,-1153.24 385.33,-1163.83 391.83,-1161.23"/>
</g>
<!-- order7 -->
<g id="node16" class="node">
<title>order7</title>
<ellipse fill="#ba0d39" stroke="#ba0d39" cx="323" cy="-445.29" rx="32.43" ry="32.43"/>
<text text-anchor="middle" x="323" y="-441.89" font-family="Times New Roman,serif" font-size="13.00">order7</text>
</g>
<!-- delivery1 -->
<g id="node17" class="node">
<title>delivery1</title>
<ellipse fill="none" stroke="#a13ccd" cx="615" cy="-445.29" rx="41.12" ry="41.12"/>
<text text-anchor="middle" x="615" y="-441.89" font-family="Times New Roman,serif" font-size="13.00">delivery1</text>
</g>
<!-- delivery1&#45;&gt;t10 -->
<g id="edge38" class="edge">
<title>delivery1:&#45;&gt;t10:</title>
<path fill="none" stroke="#a13ccd" d="M647.92,-420.32C666.91,-406.49 690.92,-389 710.98,-374.38"/>
<polygon fill="#a13ccd" stroke="#a13ccd" points="713.3,-377.03 719.32,-368.31 709.17,-371.37 713.3,-377.03"/>
</g>
<!-- delivery2 -->
<g id="node18" class="node">
<title>delivery2</title>
<ellipse fill="none" stroke="#a13ccd" cx="718" cy="-647.41" rx="41.12" ry="41.12"/>
<text text-anchor="middle" x="718" y="-644.01" font-family="Times New Roman,serif" font-size="13.00">delivery2</text>
</g>
<!-- delivery2&#45;&gt;t9 -->
<g id="edge40" class="edge">
<title>delivery2:&#45;&gt;t9:</title>
<path fill="none" stroke="#a13ccd" d="M749.42,-620.9C765.92,-607.5 786.24,-591.01 803.44,-577.04"/>
<polygon fill="#a13ccd" stroke="#a13ccd" points="806.05,-579.43 811.61,-570.41 801.64,-573.99 806.05,-579.43"/>
</g>
<!-- delivery3 -->
<g id="node19" class="node">
<title>delivery3</title>
<ellipse fill="none" stroke="#a13ccd" cx="751" cy="-445.29" rx="41.12" ry="41.12"/>
<text text-anchor="middle" x="751" y="-441.89" font-family="Times New Roman,serif" font-size="13.00">delivery3</text>
</g>
<!-- delivery3&#45;&gt;t10 -->
<g id="edge42" class="edge">
<title>delivery3:&#45;&gt;t10:</title>
<path fill="none" stroke="#a13ccd" d="M751,-404C751,-395.59 751,-386.8 751,-378.66"/>
<polygon fill="#a13ccd" stroke="#a13ccd" points="754.5,-378.43 751,-368.43 747.5,-378.43 754.5,-378.43"/>
</g>
<!-- delivery4 -->
<g id="node20" class="node">
<title>delivery4</title>
<ellipse fill="#a13ccd" stroke="#a13ccd" cx="632" cy="-849.53" rx="41.12" ry="41.12"/>
<text text-anchor="middle" x="632" y="-846.13" font-family="Times New Roman,serif" font-size="13.00">delivery4</text>
</g>
<!-- t17 -->
<g id="node40" class="node">
<title>t17</title>
<polygon fill="#000000" stroke="black" points="659,-766.47 605,-766.47 605,-730.47 659,-730.47 659,-766.47"/>
<text text-anchor="middle" x="632" y="-744.77" font-family="Times New Roman,serif" font-size="14.00" fill="#ffffff">t17</text>
<text text-anchor="middle" x="592.5" y="-770.27" font-family="Times New Roman,serif" font-size="14.00" fill="#ffffff">Test</text>
</g>
<!-- delivery4&#45;&gt;t17 -->
<g id="edge43" class="edge">
<title>delivery4:&#45;&gt;t17:</title>
<path fill="none" stroke="#a13ccd" d="M632,-808.24C632,-797.65 632,-786.48 632,-776.76"/>
<polygon fill="#a13ccd" stroke="#a13ccd" points="635.5,-776.5 632,-766.5 628.5,-776.5 635.5,-776.5"/>
</g>
<!-- delivery5 -->
<g id="node21" class="node">
<title>delivery5</title>
<ellipse fill="none" stroke="#a13ccd" cx="599" cy="-647.41" rx="41.12" ry="41.12"/>
<text text-anchor="middle" x="599" y="-644.01" font-family="Times New Roman,serif" font-size="13.00">delivery5</text>
</g>
<!-- t16 -->
<g id="node39" class="node">
<title>t16</title>
<polygon fill="none" stroke="black" points="694,-570.35 466,-570.35 466,-522.35 694,-522.35 694,-570.35"/>
<text text-anchor="middle" x="580" y="-537.55" font-family="Times New Roman,serif" font-size="36.00">Fuel Car &#160;(t16)</text>
</g>
<!-- delivery5&#45;&gt;t16 -->
<g id="edge45" class="edge">
<title>delivery5:&#45;&gt;t16:</title>
<path fill="none" stroke="#a13ccd" d="M591.44,-606.98C589.74,-598.16 587.97,-588.89 586.33,-580.36"/>
<polygon fill="#a13ccd" stroke="#a13ccd" points="589.74,-579.56 584.42,-570.4 582.87,-580.88 589.74,-579.56"/>
</g>
<!-- delivery6 -->
<g id="node22" class="node">
<title>delivery6</title>
<ellipse fill="#a13ccd" stroke="#a13ccd" cx="796" cy="-41.06" rx="41.12" ry="41.12"/>
<text text-anchor="middle" x="796" y="-37.66" font-family="Times New Roman,serif" font-size="13.00">delivery6</text>
</g>
<!-- delivery7 -->
<g id="node23" class="node">
<title>delivery7</title>
<ellipse fill="none" stroke="#a13ccd" cx="796" cy="-243.18" rx="41.12" ry="41.12"/>
<text text-anchor="middle" x="796" y="-239.78" font-family="Times New Roman,serif" font-size="13.00">delivery7</text>
</g>
<!-- delivery7&#45;&gt;t5 -->
<g id="edge48" class="edge">
<title>delivery7:&#45;&gt;t5:</title>
<path fill="none" stroke="#a13ccd" d="M779.37,-205.57C774.9,-195.73 770.1,-185.17 765.74,-175.57"/>
<polygon fill="#a13ccd" stroke="#a13ccd" points="768.88,-174.02 761.56,-166.36 762.51,-176.92 768.88,-174.02"/>
</g>
<!-- t1&#45;&gt;item2 -->
<g id="edge2" class="edge">
<title>t1:&#45;&gt;item2:</title>
<path fill="none" stroke="#05b202" d="M441.87,-1480.46C437.65,-1470.95 432.68,-1459.72 428.01,-1449.21"/>
<path fill="none" stroke="white" d="M443.7,-1479.65C439.48,-1470.14 434.5,-1458.91 429.84,-1448.4"/>
<path fill="none" stroke="#05b202" d="M445.53,-1478.84C441.31,-1469.33 436.33,-1458.1 431.67,-1447.59"/>
<polygon fill="#05b202" stroke="#05b202" points="432.93,-1446.73 425.68,-1439.01 426.53,-1449.57 432.93,-1446.73"/>
</g>
<!-- t1&#45;&gt;order1 -->
<g id="edge21" class="edge">
<title>t1:&#45;&gt;order1:</title>
<path fill="none" stroke="#ba0d39" d="M464.3,-1479.65C468.23,-1470.79 472.82,-1460.44 477.2,-1450.56"/>
<polygon fill="#ba0d39" stroke="#ba0d39" points="480.45,-1451.87 481.3,-1441.3 474.05,-1449.03 480.45,-1451.87"/>
</g>
<!-- t2&#45;&gt;item3 -->
<g id="edge4" class="edge">
<title>t2:&#45;&gt;item3:</title>
<path fill="none" stroke="#05b202" d="M462.47,-1294.41C466.69,-1284.89 471.67,-1273.67 476.33,-1263.15"/>
<path fill="none" stroke="white" d="M464.3,-1295.22C468.52,-1285.71 473.5,-1274.48 478.16,-1263.96"/>
<path fill="none" stroke="#05b202" d="M466.13,-1296.03C470.35,-1286.52 475.32,-1275.29 479.99,-1264.78"/>
<polygon fill="#05b202" stroke="#05b202" points="481.47,-1265.14 482.32,-1254.58 475.07,-1262.3 481.47,-1265.14"/>
</g>
<!-- t2&#45;&gt;order6 -->
<g id="edge33" class="edge">
<title>t2:&#45;&gt;order6:</title>
<path fill="none" stroke="#ba0d39" d="M443.7,-1295.22C439.77,-1286.36 435.18,-1276.01 430.8,-1266.13"/>
<polygon fill="#ba0d39" stroke="#ba0d39" points="433.95,-1264.6 426.7,-1256.87 427.55,-1267.43 433.95,-1264.6"/>
</g>
<!-- t3&#45;&gt;item5 -->
<g id="edge8" class="edge">
<title>t3:&#45;&gt;item5:</title>
<path fill="none" stroke="#05b202" d="M475.6,-1116.82C479.04,-1114.76 482.56,-1112.77 486,-1111.02 530.23,-1088.47 583.88,-1068.49 619.15,-1056.3"/>
<polygon fill="#05b202" stroke="#05b202" points="620.71,-1059.47 629.04,-1052.92 618.44,-1052.84 620.71,-1059.47"/>
</g>
<!-- t3&#45;&gt;order2 -->
<g id="edge23" class="edge">
<title>t3:&#45;&gt;order2:</title>
<path fill="none" stroke="#ba0d39" d="M450,-1116.92C450,-1084.61 450,-1012.4 450,-951.59 450,-951.59 450,-951.59 450,-848.53 450,-792.75 460.37,-771.89 431,-724.47 414.69,-698.14 385.52,-678.42 361.61,-665.67"/>
<polygon fill="#ba0d39" stroke="#ba0d39" points="362.9,-662.4 352.41,-660.96 359.72,-668.63 362.9,-662.4"/>
</g>
<!-- t4&#45;&gt;item5 -->
<g id="edge9" class="edge">
<title>t4:&#45;&gt;item5:</title>
<path fill="none" stroke="#05b202" d="M657.74,-1110.79C657.65,-1102.28 657.54,-1092.39 657.43,-1082.88"/>
<polygon fill="#05b202" stroke="#05b202" points="660.93,-1082.73 657.32,-1072.77 653.93,-1082.81 660.93,-1082.73"/>
</g>
<!-- t5&#45;&gt;item4 -->
<g id="edge7" class="edge">
<title>t5:&#45;&gt;item4:</title>
<path fill="none" stroke="#05b202" d="M738.86,-118.7C733.58,-106.83 727.05,-92.12 721.14,-78.82"/>
<path fill="none" stroke="white" d="M740.68,-117.89C735.41,-106.02 728.88,-91.31 722.97,-78.01"/>
<path fill="none" stroke="#05b202" d="M742.51,-117.08C737.24,-105.21 730.7,-90.5 724.8,-77.2"/>
<polygon fill="#05b202" stroke="#05b202" points="726.06,-76.36 718.81,-68.64 719.67,-79.2 726.06,-76.36"/>
</g>
<!-- t5&#45;&gt;delivery6 -->
<g id="edge46" class="edge">
<title>t5:&#45;&gt;delivery6:</title>
<path fill="none" stroke="#a13ccd" d="M761.55,-117.89C765.61,-108.96 770.4,-98.42 775.09,-88.09"/>
<polygon fill="#a13ccd" stroke="#a13ccd" points="778.4,-89.26 779.35,-78.71 772.03,-86.36 778.4,-89.26"/>
</g>
<!-- t6&#45;&gt;item6 -->
<g id="edge12" class="edge">
<title>t6:&#45;&gt;item6:</title>
<path fill="none" stroke="#05b202" d="M683.94,-932.52C687.3,-930.48 690.71,-928.46 694,-926.59 731.08,-905.45 774.58,-883.09 804.39,-868.13"/>
<polygon fill="#05b202" stroke="#05b202" points="806.19,-871.14 813.57,-863.54 803.06,-864.88 806.19,-871.14"/>
</g>
<!-- t7&#45;&gt;item6 -->
<g id="edge13" class="edge">
<title>t7:&#45;&gt;item6:</title>
<path fill="none" stroke="#05b202" d="M840,-926.36C840,-915.37 840,-901.95 840,-889.47"/>
<polygon fill="#05b202" stroke="#05b202" points="843.5,-889.28 840,-879.28 836.5,-889.28 843.5,-889.28"/>
</g>
<!-- t8&#45;&gt;item7 -->
<g id="edge15" class="edge">
<title>t8:&#45;&gt;item7:</title>
<path fill="none" stroke="#05b202" d="M840,-724.25C840,-713.26 840,-699.83 840,-687.35"/>
<polygon fill="#05b202" stroke="#05b202" points="843.5,-687.16 840,-677.16 836.5,-687.16 843.5,-687.16"/>
</g>
<!-- t9&#45;&gt;item8 -->
<g id="edge17" class="edge">
<title>t9:&#45;&gt;item8:</title>
<path fill="none" stroke="#05b202" d="M838,-522.13C838,-511.14 838,-497.71 838,-485.23"/>
<path fill="none" stroke="white" d="M840,-522.13C840,-511.14 840,-497.71 840,-485.23"/>
<path fill="none" stroke="#05b202" d="M842,-522.13C842,-511.14 842,-497.71 842,-485.23"/>
<polygon fill="#05b202" stroke="#05b202" points="843.5,-485.04 840,-475.04 836.5,-485.04 843.5,-485.04"/>
</g>
<!-- t9&#45;&gt;delivery3 -->
<g id="edge41" class="edge">
<title>t9:&#45;&gt;delivery3:</title>
<path fill="none" stroke="#a13ccd" d="M819.13,-522.13C809.01,-510.86 796.58,-497.03 785.13,-484.28"/>
<polygon fill="#a13ccd" stroke="#a13ccd" points="787.43,-481.61 778.15,-476.51 782.23,-486.29 787.43,-481.61"/>
</g>
<!-- t10&#45;&gt;item9 -->
<g id="edge19" class="edge">
<title>t10:&#45;&gt;item9:</title>
<path fill="none" stroke="#05b202" d="M738.86,-320.82C733.58,-308.95 727.05,-294.24 721.14,-280.94"/>
<path fill="none" stroke="white" d="M740.68,-320.01C735.41,-308.14 728.88,-293.43 722.97,-280.13"/>
<path fill="none" stroke="#05b202" d="M742.51,-319.2C737.24,-307.33 730.7,-292.61 724.8,-279.32"/>
<polygon fill="#05b202" stroke="#05b202" points="726.06,-278.47 718.81,-270.76 719.67,-281.32 726.06,-278.47"/>
</g>
<!-- t10&#45;&gt;delivery7 -->
<g id="edge47" class="edge">
<title>t10:&#45;&gt;delivery7:</title>
<path fill="none" stroke="#a13ccd" d="M761.55,-320.01C765.61,-311.08 770.4,-300.54 775.09,-290.2"/>
<polygon fill="#a13ccd" stroke="#a13ccd" points="778.4,-291.38 779.35,-280.82 772.03,-288.48 778.4,-291.38"/>
</g>
<!-- t11&#45;&gt;order2 -->
<g id="edge24" class="edge">
<title>t11:&#45;&gt;order2:</title>
<path fill="none" stroke="#ba0d39" d="M323,-730.22C323,-719.07 323,-704.05 323,-689.92"/>
<polygon fill="#ba0d39" stroke="#ba0d39" points="326.5,-689.87 323,-679.87 319.5,-689.87 326.5,-689.87"/>
</g>
<!-- t12&#45;&gt;order7 -->
<g id="edge36" class="edge">
<title>t12:&#45;&gt;order7:</title>
<path fill="none" stroke="#ba0d39" d="M323,-522.13C323,-511.87 323,-499.48 323,-487.73"/>
<polygon fill="#ba0d39" stroke="#ba0d39" points="326.5,-487.62 323,-477.62 319.5,-487.62 326.5,-487.62"/>
</g>
<!-- t13&#45;&gt;order3 -->
<g id="edge26" class="edge">
<title>t13:&#45;&gt;order3:</title>
<path fill="none" stroke="#ba0d39" d="M378,-1116.63C378,-1107.61 378,-1096.18 378,-1085.07"/>
<polygon fill="#ba0d39" stroke="#ba0d39" points="381.5,-1085.03 378,-1075.03 374.5,-1085.03 381.5,-1085.03"/>
</g>
<!-- t14&#45;&gt;order3 -->
<g id="edge27" class="edge">
<title>t14:&#45;&gt;order3:</title>
<path fill="none" stroke="#ba0d39" d="M394.58,-766.72C393.59,-804.45 390.75,-897.15 385,-974.59 384.38,-982.99 383.55,-991.97 382.69,-1000.54"/>
<polygon fill="#ba0d39" stroke="#ba0d39" points="379.18,-1000.41 381.63,-1010.72 386.14,-1001.13 379.18,-1000.41"/>
</g>
<!-- t15&#45;&gt;order4 -->
<g id="edge29" class="edge">
<title>t15:&#45;&gt;order4:</title>
<path fill="none" stroke="#ba0d39" d="M219.65,-926.36C240.57,-911.02 267.95,-890.92 289.28,-875.28"/>
<polygon fill="#ba0d39" stroke="#ba0d39" points="291.43,-878.04 297.42,-869.3 287.29,-872.4 291.43,-878.04"/>
</g>
<!-- t16&#45;&gt;delivery1 -->
<g id="edge37" class="edge">
<title>t16:&#45;&gt;delivery1:</title>
<path fill="none" stroke="#a13ccd" d="M588.21,-522.13C591.18,-513.72 594.65,-503.89 598.09,-494.15"/>
<polygon fill="#a13ccd" stroke="#a13ccd" points="601.47,-495.08 601.5,-484.49 594.87,-492.75 601.47,-495.08"/>
</g>
<!-- t17&#45;&gt;delivery2 -->
<g id="edge39" class="edge">
<title>t17:&#45;&gt;delivery2:</title>
<path fill="none" stroke="#a13ccd" d="M646.98,-730.22C657.39,-718.23 671.68,-701.77 684.71,-686.76"/>
<polygon fill="#a13ccd" stroke="#a13ccd" points="687.47,-688.91 691.39,-679.07 682.19,-684.33 687.47,-688.91"/>
</g>
<!-- t17&#45;&gt;delivery5 -->
<g id="edge44" class="edge">
<title>t17:&#45;&gt;delivery5:</title>
<path fill="none" stroke="#a13ccd" d="M626.25,-730.22C623.1,-720.77 619.03,-708.55 615,-696.44"/>
<polygon fill="#a13ccd" stroke="#a13ccd" points="618.28,-695.2 611.79,-686.82 611.63,-697.41 618.28,-695.2"/>
</g>
</g>
</svg>
