<?xml version="1.0" encoding="UTF-8" standalone="no"?>
<!DOCTYPE svg PUBLIC "-//W3C//DTD SVG 1.1//EN"
 "http://www.w3.org/Graphics/SVG/1.1/DTD/svg11.dtd">
<!-- Generated by graphviz version 2.44.2~dev.20201002.0216 (20201002.0216)
 -->
<!-- Pages: 1 -->
<svg width="935pt" height="1636pt"
 viewBox="0.00 0.00 934.50 1636.31" xmlns="http://www.w3.org/2000/svg" xmlns:xlink="http://www.w3.org/1999/xlink">
<g id="graph0" class="graph" transform="scale(1 1) rotate(0) translate(4 1632.31)">
<!-- item1 -->
<g id="node1" class="node">
<title>item1</title>
<ellipse fill="#05b202" stroke="#05b202" cx="462" cy="-1596.1" rx="29.88" ry="29.88"/>
<text text-anchor="middle" x="462" y="-1592.7" font-family="Times New Roman,serif" font-size="13.00">item1</text>
</g>
<!-- t1 -->
<g id="node24" class="node">
<title>t1</title>
<polygon fill="none" stroke="black" points="630,-1527.88 374,-1527.88 374,-1479.88 630,-1479.88 630,-1527.88"/>
<text text-anchor="middle" x="502" y="-1495.08" font-family="Times New Roman,serif" font-size="36.00">Place Order &#160;(t1)</text>
</g>
<!-- item1&#45;&gt;t1 -->
<g id="edge1" class="edge">
<title>item1:&#45;&gt;t1:</title>
<path fill="none" stroke="#05b202" d="M471.96,-1567.71C476.29,-1557.94 481.24,-1546.77 485.78,-1536.54"/>
<path fill="none" stroke="white" d="M473.78,-1568.52C478.12,-1558.75 483.07,-1547.58 487.6,-1537.35"/>
<path fill="none" stroke="#05b202" d="M475.61,-1569.33C479.94,-1559.56 484.9,-1548.39 489.43,-1538.16"/>
<polygon fill="#05b202" stroke="#05b202" points="490.94,-1538.47 491.79,-1527.91 484.54,-1535.63 490.94,-1538.47"/>
</g>
<!-- item2 -->
<g id="node2" class="node">
<title>item2</title>
<ellipse fill="none" stroke="#05b202" cx="462" cy="-1411.67" rx="29.88" ry="29.88"/>
<text text-anchor="middle" x="462" y="-1408.27" font-family="Times New Roman,serif" font-size="13.00">item2</text>
</g>
<!-- t2 -->
<g id="node25" class="node">
<title>t2</title>
<polygon fill="none" stroke="black" points="651,-1343.45 353,-1343.45 353,-1295.45 651,-1295.45 651,-1343.45"/>
<text text-anchor="middle" x="502" y="-1310.65" font-family="Times New Roman,serif" font-size="36.00">Confirm Order &#160;(t2)</text>
</g>
<!-- item2&#45;&gt;t2 -->
<g id="edge3" class="edge">
<title>item2:&#45;&gt;t2:</title>
<path fill="none" stroke="#05b202" d="M471.96,-1383.28C476.29,-1373.51 481.24,-1362.34 485.78,-1352.11"/>
<path fill="none" stroke="white" d="M473.78,-1384.09C478.12,-1374.32 483.07,-1363.15 487.6,-1352.92"/>
<path fill="none" stroke="#05b202" d="M475.61,-1384.9C479.94,-1375.13 484.9,-1363.96 489.43,-1353.73"/>
<polygon fill="#05b202" stroke="#05b202" points="490.94,-1354.04 491.79,-1343.48 484.54,-1351.2 490.94,-1354.04"/>
</g>
<!-- item3 -->
<g id="node3" class="node">
<title>item3</title>
<ellipse fill="none" stroke="#05b202" cx="550" cy="-1227.24" rx="29.88" ry="29.88"/>
<text text-anchor="middle" x="550" y="-1223.84" font-family="Times New Roman,serif" font-size="13.00">item3</text>
</g>
<!-- t3 -->
<g id="node26" class="node">
<title>t3</title>
<polygon fill="none" stroke="black" points="904,-1159.02 578,-1159.02 578,-1111.02 904,-1111.02 904,-1159.02"/>
<text text-anchor="middle" x="741" y="-1126.22" font-family="Times New Roman,serif" font-size="36.00">Item out of stock &#160;(t3)</text>
</g>
<!-- item3&#45;&gt;t3 -->
<g id="edge5" class="edge">
<title>item3:&#45;&gt;t3:</title>
<path fill="none" stroke="#05b202" d="M576.56,-1213.69C603.94,-1200.76 647.51,-1180.18 682.93,-1163.45"/>
<polygon fill="#05b202" stroke="#05b202" points="684.66,-1166.5 692.21,-1159.07 681.67,-1160.17 684.66,-1166.5"/>
</g>
<!-- t16 -->
<g id="node39" class="node">
<title>t16</title>
<polygon fill="#000000" stroke="black" points="584,-1060.8 530,-1060.8 530,-1024.8 584,-1024.8 584,-1060.8"/>
<text text-anchor="middle" x="557" y="-1039.1" font-family="Times New Roman,serif" font-size="14.00" fill="#ffffff">t16</text>
<text text-anchor="middle" x="517.5" y="-1064.6" font-family="Times New Roman,serif" font-size="14.00" fill="#ffffff">Test</text>
</g>
<!-- item3&#45;&gt;t16 -->
<g id="edge43" class="edge">
<title>item3:&#45;&gt;t16:</title>
<path fill="none" stroke="#05b202" d="M551.11,-1197.33C552.44,-1162.7 554.65,-1105.11 555.95,-1071.18"/>
<polygon fill="#05b202" stroke="#05b202" points="559.45,-1071.18 556.34,-1061.05 552.46,-1070.91 559.45,-1071.18"/>
</g>
<!-- item4 -->
<g id="node4" class="node">
<title>item4</title>
<ellipse fill="#05b202" stroke="#05b202" cx="666" cy="-41.06" rx="29.88" ry="29.88"/>
<text text-anchor="middle" x="666" y="-37.66" font-family="Times New Roman,serif" font-size="13.00">item4</text>
</g>
<!-- item5 -->
<g id="node5" class="node">
<title>item5</title>
<ellipse fill="none" stroke="#05b202" cx="741" cy="-1042.8" rx="29.88" ry="29.88"/>
<text text-anchor="middle" x="741" y="-1039.4" font-family="Times New Roman,serif" font-size="13.00">item5</text>
</g>
<!-- t5 -->
<g id="node28" class="node">
<title>t5</title>
<polygon fill="none" stroke="black" points="878.5,-974.59 603.5,-974.59 603.5,-926.59 878.5,-926.59 878.5,-974.59"/>
<text text-anchor="middle" x="741" y="-941.79" font-family="Times New Roman,serif" font-size="36.00">Reorder Item &#160;(t5)</text>
</g>
<!-- item5&#45;&gt;t5 -->
<g id="edge8" class="edge">
<title>item5:&#45;&gt;t5:</title>
<path fill="none" stroke="#05b202" d="M741,-1012.76C741,-1003.95 741,-994.2 741,-985.12"/>
<polygon fill="#05b202" stroke="#05b202" points="744.5,-984.86 741,-974.86 737.5,-984.86 744.5,-984.86"/>
</g>
<!-- item6 -->
<g id="node6" class="node">
<title>item6</title>
<ellipse fill="none" stroke="#05b202" cx="741" cy="-849.53" rx="29.88" ry="29.88"/>
<text text-anchor="middle" x="741" y="-846.13" font-family="Times New Roman,serif" font-size="13.00">item6</text>
</g>
<!-- t6 -->
<g id="node29" class="node">
<title>t6</title>
<polygon fill="none" stroke="black" points="903,-772.47 681,-772.47 681,-724.47 903,-724.47 903,-772.47"/>
<text text-anchor="middle" x="792" y="-739.67" font-family="Times New Roman,serif" font-size="36.00">Pick Item &#160;(t6)</text>
</g>
<!-- item6&#45;&gt;t6 -->
<g id="edge10" class="edge">
<title>item6:&#45;&gt;t6:</title>
<path fill="none" stroke="#05b202" d="M754.27,-822.76C760.68,-810.31 768.44,-795.23 775.26,-781.99"/>
<polygon fill="#05b202" stroke="#05b202" points="778.55,-783.23 780.02,-772.74 772.33,-780.03 778.55,-783.23"/>
</g>
<!-- item7 -->
<g id="node7" class="node">
<title>item7</title>
<ellipse fill="none" stroke="#05b202" cx="796" cy="-647.41" rx="29.88" ry="29.88"/>
<text text-anchor="middle" x="796" y="-644.01" font-family="Times New Roman,serif" font-size="13.00">item7</text>
</g>
<!-- t7 -->
<g id="node30" class="node">
<title>t7</title>
<polygon fill="none" stroke="black" points="926.5,-570.35 671.5,-570.35 671.5,-522.35 926.5,-522.35 926.5,-570.35"/>
<text text-anchor="middle" x="799" y="-537.55" font-family="Times New Roman,serif" font-size="36.00">Load Cargo &#160;(t7)</text>
</g>
<!-- item7&#45;&gt;t7 -->
<g id="edge12" class="edge">
<title>item7:&#45;&gt;t7:</title>
<path fill="none" stroke="#05b202" d="M794.88,-617.43C795.23,-605.86 795.63,-592.46 796,-580.5"/>
<path fill="none" stroke="white" d="M796.88,-617.49C797.23,-605.92 797.63,-592.52 797.99,-580.56"/>
<path fill="none" stroke="#05b202" d="M798.87,-617.55C799.23,-605.98 799.63,-592.58 799.99,-580.62"/>
<polygon fill="#05b202" stroke="#05b202" points="801.49,-580.59 798.3,-570.49 794.5,-580.38 801.49,-580.59"/>
</g>
<!-- item8 -->
<g id="node8" class="node">
<title>item8</title>
<ellipse fill="none" stroke="#05b202" cx="799" cy="-445.29" rx="29.88" ry="29.88"/>
<text text-anchor="middle" x="799" y="-441.89" font-family="Times New Roman,serif" font-size="13.00">item8</text>
</g>
<!-- t8 -->
<g id="node31" class="node">
<title>t8</title>
<polygon fill="none" stroke="black" points="834,-368.24 586,-368.24 586,-320.24 834,-320.24 834,-368.24"/>
<text text-anchor="middle" x="710" y="-335.44" font-family="Times New Roman,serif" font-size="36.00">Start Route &#160;(t8)</text>
</g>
<!-- item8&#45;&gt;t8 -->
<g id="edge14" class="edge">
<title>item8:&#45;&gt;t8:</title>
<path fill="none" stroke="#05b202" d="M777.76,-423.65C765.55,-410.06 749.69,-392.41 736.24,-377.43"/>
<path fill="none" stroke="white" d="M779.25,-422.31C767.04,-408.72 751.18,-391.07 737.72,-376.09"/>
<path fill="none" stroke="#05b202" d="M780.74,-420.97C768.53,-407.38 752.67,-389.74 739.21,-374.76"/>
<polygon fill="#05b202" stroke="#05b202" points="740.22,-373.64 730.94,-368.54 735.02,-378.32 740.22,-373.64"/>
</g>
<!-- item9 -->
<g id="node9" class="node">
<title>item9</title>
<ellipse fill="none" stroke="#05b202" cx="666" cy="-243.18" rx="29.88" ry="29.88"/>
<text text-anchor="middle" x="666" y="-239.78" font-family="Times New Roman,serif" font-size="13.00">item9</text>
</g>
<!-- t4 -->
<g id="node27" class="node">
<title>t4</title>
<polygon fill="none" stroke="black" points="828.5,-166.12 591.5,-166.12 591.5,-118.12 828.5,-118.12 828.5,-166.12"/>
<text text-anchor="middle" x="710" y="-133.32" font-family="Times New Roman,serif" font-size="36.00">End Route &#160;(t4)</text>
</g>
<!-- item9&#45;&gt;t4 -->
<g id="edge16" class="edge">
<title>item9:&#45;&gt;t4:</title>
<path fill="none" stroke="#05b202" d="M675.96,-214.82C681.4,-202.58 687.9,-187.93 693.64,-175.02"/>
<path fill="none" stroke="white" d="M677.79,-215.63C683.23,-203.39 689.73,-188.75 695.47,-175.83"/>
<path fill="none" stroke="#05b202" d="M679.62,-216.44C685.06,-204.2 691.56,-189.56 697.3,-176.64"/>
<polygon fill="#05b202" stroke="#05b202" points="698.81,-176.92 699.68,-166.36 692.42,-174.08 698.81,-176.92"/>
</g>
<!-- order1 -->
<g id="node10" class="node">
<title>order1</title>
<ellipse fill="none" stroke="#ba0d39" cx="542" cy="-1411.67" rx="32.43" ry="32.43"/>
<text text-anchor="middle" x="542" y="-1408.27" font-family="Times New Roman,serif" font-size="13.00">order1</text>
</g>
<!-- order1&#45;&gt;t2 -->
<g id="edge18" class="edge">
<title>order1:&#45;&gt;t2:</title>
<path fill="none" stroke="#ba0d39" d="M529.12,-1381.63C525.09,-1372.53 520.61,-1362.43 516.47,-1353.1"/>
<polygon fill="#ba0d39" stroke="#ba0d39" points="519.57,-1351.45 512.32,-1343.73 513.17,-1354.29 519.57,-1351.45"/>
</g>
<!-- order2 -->
<g id="node11" class="node">
<title>order2</title>
<ellipse fill="none" stroke="#ba0d39" cx="297" cy="-647.41" rx="32.43" ry="32.43"/>
<text text-anchor="middle" x="297" y="-644.01" font-family="Times New Roman,serif" font-size="13.00">order2</text>
</g>
<!-- t10 -->
<g id="node33" class="node">
<title>t10</title>
<polygon fill="none" stroke="black" points="407,-570.35 157,-570.35 157,-522.35 407,-522.35 407,-570.35"/>
<text text-anchor="middle" x="282" y="-537.55" font-family="Times New Roman,serif" font-size="36.00">Pay Order &#160;(t10)</text>
</g>
<!-- order2&#45;&gt;t10 -->
<g id="edge20" class="edge">
<title>order2:&#45;&gt;t10:</title>
<path fill="none" stroke="#ba0d39" d="M292.3,-615.34C290.61,-604.22 288.71,-591.65 287,-580.37"/>
<polygon fill="#ba0d39" stroke="#ba0d39" points="290.46,-579.82 285.5,-570.45 283.53,-580.86 290.46,-579.82"/>
</g>
<!-- order3 -->
<g id="node12" class="node">
<title>order3</title>
<ellipse fill="none" stroke="#ba0d39" cx="402" cy="-1042.8" rx="32.43" ry="32.43"/>
<text text-anchor="middle" x="402" y="-1039.4" font-family="Times New Roman,serif" font-size="13.00">order3</text>
</g>
<!-- t13 -->
<g id="node36" class="node">
<title>t13</title>
<polygon fill="none" stroke="black" points="376,-974.59 0,-974.59 0,-926.59 376,-926.59 376,-974.59"/>
<text text-anchor="middle" x="188" y="-941.79" font-family="Times New Roman,serif" font-size="36.00">Payment Reminder &#160;(t13)</text>
</g>
<!-- order3&#45;&gt;t13 -->
<g id="edge23" class="edge">
<title>order3:&#45;&gt;t13:</title>
<path fill="none" stroke="#ba0d39" d="M372.24,-1029.26C341.3,-1016.22 291.91,-995.4 252.06,-978.59"/>
<polygon fill="#ba0d39" stroke="#ba0d39" points="253.24,-975.3 242.67,-974.64 250.52,-981.75 253.24,-975.3"/>
</g>
<!-- order4 -->
<g id="node13" class="node">
<title>order4</title>
<ellipse fill="none" stroke="#ba0d39" cx="297" cy="-849.53" rx="32.43" ry="32.43"/>
<text text-anchor="middle" x="297" y="-846.13" font-family="Times New Roman,serif" font-size="13.00">order4</text>
</g>
<!-- t9 -->
<g id="node32" class="node">
<title>t9</title>
<polygon fill="#000000" stroke="black" points="324,-766.47 270,-766.47 270,-730.47 324,-730.47 324,-766.47"/>
<text text-anchor="middle" x="297" y="-744.77" font-family="Times New Roman,serif" font-size="14.00" fill="#ffffff">t9</text>
<text text-anchor="middle" x="257.5" y="-770.27" font-family="Times New Roman,serif" font-size="14.00" fill="#ffffff">Test</text>
</g>
<!-- order4&#45;&gt;t9 -->
<g id="edge26" class="edge">
<title>order4:&#45;&gt;t9:</title>
<path fill="none" stroke="#ba0d39" d="M297,-817.19C297,-804.21 297,-789.3 297,-776.78"/>
<polygon fill="#ba0d39" stroke="#ba0d39" points="300.5,-776.5 297,-766.5 293.5,-776.5 300.5,-776.5"/>
</g>
<!-- t12 -->
<g id="node35" class="node">
<title>t12</title>
<polygon fill="#000000" stroke="black" points="413,-766.47 359,-766.47 359,-730.47 413,-730.47 413,-766.47"/>
<text text-anchor="middle" x="386" y="-744.77" font-family="Times New Roman,serif" font-size="14.00" fill="#ffffff">t12</text>
<text text-anchor="middle" x="346.5" y="-770.27" font-family="Times New Roman,serif" font-size="14.00" fill="#ffffff">Test</text>
</g>
<!-- order4&#45;&gt;t12 -->
<g id="edge25" class="edge">
<title>order4:&#45;&gt;t12:</title>
<path fill="none" stroke="#ba0d39" d="M318.09,-825.05C331.84,-809.76 349.75,-789.82 363.72,-774.27"/>
<polygon fill="#ba0d39" stroke="#ba0d39" points="366.55,-776.36 370.63,-766.58 361.34,-771.68 366.55,-776.36"/>
</g>
<!-- order5 -->
<g id="node14" class="node">
<title>order5</title>
<ellipse fill="#ba0d39" stroke="#ba0d39" cx="542" cy="-1596.1" rx="32.43" ry="32.43"/>
<text text-anchor="middle" x="542" y="-1592.7" font-family="Times New Roman,serif" font-size="13.00">order5</text>
</g>
<!-- order5&#45;&gt;t1 -->
<g id="edge27" class="edge">
<title>order5:&#45;&gt;t1:</title>
<path fill="none" stroke="#ba0d39" d="M529.12,-1566.06C525.09,-1556.96 520.61,-1546.86 516.47,-1537.53"/>
<polygon fill="#ba0d39" stroke="#ba0d39" points="519.57,-1535.88 512.32,-1528.16 513.17,-1538.72 519.57,-1535.88"/>
</g>
<!-- order6 -->
<g id="node15" class="node">
<title>order6</title>
<ellipse fill="none" stroke="#ba0d39" cx="462" cy="-1227.24" rx="32.43" ry="32.43"/>
<text text-anchor="middle" x="462" y="-1223.84" font-family="Times New Roman,serif" font-size="13.00">order6</text>
</g>
<!-- t11 -->
<g id="node34" class="node">
<title>t11</title>
<polygon fill="#000000" stroke="black" points="432,-1153.02 378,-1153.02 378,-1117.02 432,-1117.02 432,-1153.02"/>
<text text-anchor="middle" x="405" y="-1131.32" font-family="Times New Roman,serif" font-size="14.00" fill="#ffffff">t11</text>
<text text-anchor="middle" x="365.5" y="-1156.82" font-family="Times New Roman,serif" font-size="14.00" fill="#ffffff">Test</text>
</g>
<!-- order6&#45;&gt;t11 -->
<g id="edge29" class="edge">
<title>order6:&#45;&gt;t11:</title>
<path fill="none" stroke="#ba0d39" d="M445.21,-1199.66C437.62,-1187.65 428.69,-1173.51 421.17,-1161.62"/>
<polygon fill="#ba0d39" stroke="#ba0d39" points="424.05,-1159.62 415.75,-1153.04 418.13,-1163.36 424.05,-1159.62"/>
</g>
<!-- t17 -->
<g id="node40" class="node">
<title>t17</title>
<polygon fill="#000000" stroke="black" points="488,-968.59 434,-968.59 434,-932.59 488,-932.59 488,-968.59"/>
<text text-anchor="middle" x="461" y="-946.89" font-family="Times New Roman,serif" font-size="14.00" fill="#ffffff">t17</text>
<text text-anchor="middle" x="421.5" y="-972.39" font-family="Times New Roman,serif" font-size="14.00" fill="#ffffff">Test</text>
</g>
<!-- order6&#45;&gt;t17 -->
<g id="edge44" class="edge">
<title>order6:&#45;&gt;t17:</title>
<path fill="none" stroke="#ba0d39" d="M461.89,-1195C461.69,-1140.79 461.29,-1030.18 461.1,-978.87"/>
<polygon fill="#ba0d39" stroke="#ba0d39" points="464.6,-978.85 461.06,-968.86 457.6,-978.87 464.6,-978.85"/>
</g>
<!-- order7 -->
<g id="node16" class="node">
<title>order7</title>
<ellipse fill="#ba0d39" stroke="#ba0d39" cx="282" cy="-445.29" rx="32.43" ry="32.43"/>
<text text-anchor="middle" x="282" y="-441.89" font-family="Times New Roman,serif" font-size="13.00">order7</text>
</g>
<!-- delivery1 -->
<g id="node17" class="node">
<title>delivery1</title>
<ellipse fill="none" stroke="#a13ccd" cx="574" cy="-445.29" rx="41.12" ry="41.12"/>
<text text-anchor="middle" x="574" y="-441.89" font-family="Times New Roman,serif" font-size="13.00">delivery1</text>
</g>
<!-- delivery1&#45;&gt;t8 -->
<g id="edge32" class="edge">
<title>delivery1:&#45;&gt;t8:</title>
<path fill="none" stroke="#a13ccd" d="M606.92,-420.32C625.91,-406.49 649.92,-389 669.98,-374.38"/>
<polygon fill="#a13ccd" stroke="#a13ccd" points="672.3,-377.03 678.32,-368.31 668.17,-371.37 672.3,-377.03"/>
</g>
<!-- delivery2 -->
<g id="node18" class="node">
<title>delivery2</title>
<ellipse fill="none" stroke="#a13ccd" cx="689" cy="-647.41" rx="41.12" ry="41.12"/>
<text text-anchor="middle" x="689" y="-644.01" font-family="Times New Roman,serif" font-size="13.00">delivery2</text>
</g>
<!-- delivery2&#45;&gt;t7 -->
<g id="edge34" class="edge">
<title>delivery2:&#45;&gt;t7:</title>
<path fill="none" stroke="#a13ccd" d="M719.06,-619.34C733.58,-606.27 751.03,-590.55 765.93,-577.14"/>
<polygon fill="#a13ccd" stroke="#a13ccd" points="768.36,-579.65 773.45,-570.36 763.68,-574.45 768.36,-579.65"/>
</g>
<!-- delivery3 -->
<g id="node19" class="node">
<title>delivery3</title>
<ellipse fill="none" stroke="#a13ccd" cx="710" cy="-445.29" rx="41.12" ry="41.12"/>
<text text-anchor="middle" x="710" y="-441.89" font-family="Times New Roman,serif" font-size="13.00">delivery3</text>
</g>
<!-- delivery3&#45;&gt;t8 -->
<g id="edge36" class="edge">
<title>delivery3:&#45;&gt;t8:</title>
<path fill="none" stroke="#a13ccd" d="M710,-404C710,-395.59 710,-386.8 710,-378.66"/>
<polygon fill="#a13ccd" stroke="#a13ccd" points="713.5,-378.43 710,-368.43 706.5,-378.43 713.5,-378.43"/>
</g>
<!-- delivery4 -->
<g id="node20" class="node">
<title>delivery4</title>
<ellipse fill="#a13ccd" stroke="#a13ccd" cx="632" cy="-849.53" rx="41.12" ry="41.12"/>
<text text-anchor="middle" x="632" y="-846.13" font-family="Times New Roman,serif" font-size="13.00">delivery4</text>
</g>
<!-- t15 -->
<g id="node38" class="node">
<title>t15</title>
<polygon fill="#000000" stroke="black" points="659,-766.47 605,-766.47 605,-730.47 659,-730.47 659,-766.47"/>
<text text-anchor="middle" x="632" y="-744.77" font-family="Times New Roman,serif" font-size="14.00" fill="#ffffff">t15</text>
<text text-anchor="middle" x="592.5" y="-770.27" font-family="Times New Roman,serif" font-size="14.00" fill="#ffffff">Test</text>
</g>
<!-- delivery4&#45;&gt;t15 -->
<g id="edge37" class="edge">
<title>delivery4:&#45;&gt;t15:</title>
<path fill="none" stroke="#a13ccd" d="M632,-808.24C632,-797.65 632,-786.48 632,-776.76"/>
<polygon fill="#a13ccd" stroke="#a13ccd" points="635.5,-776.5 632,-766.5 628.5,-776.5 635.5,-776.5"/>
</g>
<!-- delivery5 -->
<g id="node21" class="node">
<title>delivery5</title>
<ellipse fill="none" stroke="#a13ccd" cx="563" cy="-647.41" rx="41.12" ry="41.12"/>
<text text-anchor="middle" x="563" y="-644.01" font-family="Times New Roman,serif" font-size="13.00">delivery5</text>
</g>
<!-- t14 -->
<g id="node37" class="node">
<title>t14</title>
<polygon fill="none" stroke="black" points="653,-570.35 425,-570.35 425,-522.35 653,-522.35 653,-570.35"/>
<text text-anchor="middle" x="539" y="-537.55" font-family="Times New Roman,serif" font-size="36.00">Fuel Car &#160;(t14)</text>
</g>
<!-- delivery5&#45;&gt;t14 -->
<g id="edge39" class="edge">
<title>delivery5:&#45;&gt;t14:</title>
<path fill="none" stroke="#a13ccd" d="M553.51,-607.26C551.35,-598.32 549.07,-588.91 546.97,-580.26"/>
<polygon fill="#a13ccd" stroke="#a13ccd" points="550.37,-579.43 544.62,-570.54 543.57,-581.08 550.37,-579.43"/>
</g>
<!-- delivery6 -->
<g id="node22" class="node">
<title>delivery6</title>
<ellipse fill="#a13ccd" stroke="#a13ccd" cx="755" cy="-41.06" rx="41.12" ry="41.12"/>
<text text-anchor="middle" x="755" y="-37.66" font-family="Times New Roman,serif" font-size="13.00">delivery6</text>
</g>
<!-- delivery7 -->
<g id="node23" class="node">
<title>delivery7</title>
<ellipse fill="none" stroke="#a13ccd" cx="755" cy="-243.18" rx="41.12" ry="41.12"/>
<text text-anchor="middle" x="755" y="-239.78" font-family="Times New Roman,serif" font-size="13.00">delivery7</text>
</g>
<!-- delivery7&#45;&gt;t4 -->
<g id="edge42" class="edge">
<title>delivery7:&#45;&gt;t4:</title>
<path fill="none" stroke="#a13ccd" d="M738.37,-205.57C733.9,-195.73 729.1,-185.17 724.74,-175.57"/>
<polygon fill="#a13ccd" stroke="#a13ccd" points="727.88,-174.02 720.56,-166.36 721.51,-176.92 727.88,-174.02"/>
</g>
<!-- t1&#45;&gt;item2 -->
<g id="edge2" class="edge">
<title>t1:&#45;&gt;item2:</title>
<path fill="none" stroke="#05b202" d="M489.87,-1480.46C485.65,-1470.95 480.68,-1459.72 476.01,-1449.21"/>
<path fill="none" stroke="white" d="M491.7,-1479.65C487.48,-1470.14 482.5,-1458.91 477.84,-1448.4"/>
<path fill="none" stroke="#05b202" d="M493.53,-1478.84C489.31,-1469.33 484.33,-1458.1 479.67,-1447.59"/>
<polygon fill="#05b202" stroke="#05b202" points="480.93,-1446.73 473.68,-1439.01 474.53,-1449.57 480.93,-1446.73"/>
</g>
<!-- t1&#45;&gt;order1 -->
<g id="edge17" class="edge">
<title>t1:&#45;&gt;order1:</title>
<path fill="none" stroke="#ba0d39" d="M512.3,-1479.65C516.23,-1470.79 520.82,-1460.44 525.2,-1450.56"/>
<polygon fill="#ba0d39" stroke="#ba0d39" points="528.45,-1451.87 529.3,-1441.3 522.05,-1449.03 528.45,-1451.87"/>
</g>
<!-- t2&#45;&gt;item3 -->
<g id="edge4" class="edge">
<title>t2:&#45;&gt;item3:</title>
<path fill="none" stroke="#05b202" d="M512.6,-1294.28C517.85,-1284.41 524.08,-1272.69 529.85,-1261.84"/>
<path fill="none" stroke="white" d="M514.36,-1295.22C519.61,-1285.35 525.85,-1273.63 531.62,-1262.78"/>
<path fill="none" stroke="#05b202" d="M516.13,-1296.16C521.38,-1286.29 527.61,-1274.57 533.38,-1263.72"/>
<polygon fill="#05b202" stroke="#05b202" points="534.72,-1264.4 536.33,-1253.93 528.54,-1261.12 534.72,-1264.4"/>
</g>
<!-- t2&#45;&gt;order6 -->
<g id="edge28" class="edge">
<title>t2:&#45;&gt;order6:</title>
<path fill="none" stroke="#ba0d39" d="M491.7,-1295.22C487.77,-1286.36 483.18,-1276.01 478.8,-1266.13"/>
<polygon fill="#ba0d39" stroke="#ba0d39" points="481.95,-1264.6 474.7,-1256.87 475.55,-1267.43 481.95,-1264.6"/>
</g>
<!-- t3&#45;&gt;item5 -->
<g id="edge7" class="edge">
<title>t3:&#45;&gt;item5:</title>
<path fill="none" stroke="#05b202" d="M741,-1110.79C741,-1102.28 741,-1092.39 741,-1082.88"/>
<polygon fill="#05b202" stroke="#05b202" points="744.5,-1082.77 741,-1072.77 737.5,-1082.77 744.5,-1082.77"/>
</g>
<!-- t4&#45;&gt;item4 -->
<g id="edge6" class="edge">
<title>t4:&#45;&gt;item4:</title>
<path fill="none" stroke="#05b202" d="M697.86,-118.7C692.58,-106.83 686.05,-92.12 680.14,-78.82"/>
<path fill="none" stroke="white" d="M699.68,-117.89C694.41,-106.02 687.88,-91.31 681.97,-78.01"/>
<path fill="none" stroke="#05b202" d="M701.51,-117.08C696.24,-105.21 689.7,-90.5 683.8,-77.2"/>
<polygon fill="#05b202" stroke="#05b202" points="685.06,-76.36 677.81,-68.64 678.67,-79.2 685.06,-76.36"/>
</g>
<!-- t4&#45;&gt;delivery6 -->
<g id="edge40" class="edge">
<title>t4:&#45;&gt;delivery6:</title>
<path fill="none" stroke="#a13ccd" d="M720.55,-117.89C724.61,-108.96 729.4,-98.42 734.09,-88.09"/>
<polygon fill="#a13ccd" stroke="#a13ccd" points="737.4,-89.26 738.35,-78.71 731.03,-86.36 737.4,-89.26"/>
</g>
<!-- t5&#45;&gt;item6 -->
<g id="edge9" class="edge">
<title>t5:&#45;&gt;item6:</title>
<path fill="none" stroke="#05b202" d="M741,-926.36C741,-915.37 741,-901.95 741,-889.47"/>
<polygon fill="#05b202" stroke="#05b202" points="744.5,-889.28 741,-879.28 737.5,-889.28 744.5,-889.28"/>
</g>
<!-- t6&#45;&gt;item7 -->
<g id="edge11" class="edge">
<title>t6:&#45;&gt;item7:</title>
<path fill="none" stroke="#05b202" d="M792.94,-724.25C793.38,-713.26 793.92,-699.83 794.43,-687.35"/>
<polygon fill="#05b202" stroke="#05b202" points="797.93,-687.29 794.84,-677.16 790.94,-687.01 797.93,-687.29"/>
</g>
<!-- t7&#45;&gt;item8 -->
<g id="edge13" class="edge">
<title>t7:&#45;&gt;item8:</title>
<path fill="none" stroke="#05b202" d="M797,-522.13C797,-511.14 797,-497.71 797,-485.23"/>
<path fill="none" stroke="white" d="M799,-522.13C799,-511.14 799,-497.71 799,-485.23"/>
<path fill="none" stroke="#05b202" d="M801,-522.13C801,-511.14 801,-497.71 801,-485.23"/>
<polygon fill="#05b202" stroke="#05b202" points="802.5,-485.04 799,-475.04 795.5,-485.04 802.5,-485.04"/>
</g>
<!-- t7&#45;&gt;delivery3 -->
<g id="edge35" class="edge">
<title>t7:&#45;&gt;delivery3:</title>
<path fill="none" stroke="#a13ccd" d="M778.13,-522.13C768.01,-510.86 755.58,-497.03 744.13,-484.28"/>
<polygon fill="#a13ccd" stroke="#a13ccd" points="746.43,-481.61 737.15,-476.51 741.23,-486.29 746.43,-481.61"/>
</g>
<!-- t8&#45;&gt;item9 -->
<g id="edge15" class="edge">
<title>t8:&#45;&gt;item9:</title>
<path fill="none" stroke="#05b202" d="M697.86,-320.82C692.58,-308.95 686.05,-294.24 680.14,-280.94"/>
<path fill="none" stroke="white" d="M699.68,-320.01C694.41,-308.14 687.88,-293.43 681.97,-280.13"/>
<path fill="none" stroke="#05b202" d="M701.51,-319.2C696.24,-307.33 689.7,-292.61 683.8,-279.32"/>
<polygon fill="#05b202" stroke="#05b202" points="685.06,-278.47 677.81,-270.76 678.67,-281.32 685.06,-278.47"/>
</g>
<!-- t8&#45;&gt;delivery7 -->
<g id="edge41" class="edge">
<title>t8:&#45;&gt;delivery7:</title>
<path fill="none" stroke="#a13ccd" d="M720.55,-320.01C724.61,-311.08 729.4,-300.54 734.09,-290.2"/>
<polygon fill="#a13ccd" stroke="#a13ccd" points="737.4,-291.38 738.35,-280.82 731.03,-288.48 737.4,-291.38"/>
</g>
<!-- t9&#45;&gt;order2 -->
<g id="edge19" class="edge">
<title>t9:&#45;&gt;order2:</title>
<path fill="none" stroke="#ba0d39" d="M297,-730.22C297,-719.07 297,-704.05 297,-689.92"/>
<polygon fill="#ba0d39" stroke="#ba0d39" points="300.5,-689.87 297,-679.87 293.5,-689.87 300.5,-689.87"/>
</g>
<!-- t10&#45;&gt;order7 -->
<g id="edge30" class="edge">
<title>t10:&#45;&gt;order7:</title>
<path fill="none" stroke="#ba0d39" d="M282,-522.13C282,-511.87 282,-499.48 282,-487.73"/>
<polygon fill="#ba0d39" stroke="#ba0d39" points="285.5,-487.62 282,-477.62 278.5,-487.62 285.5,-487.62"/>
</g>
<!-- t11&#45;&gt;order3 -->
<g id="edge21" class="edge">
<title>t11:&#45;&gt;order3:</title>
<path fill="none" stroke="#ba0d39" d="M404.42,-1116.63C404.12,-1107.61 403.74,-1096.18 403.37,-1085.07"/>
<polygon fill="#ba0d39" stroke="#ba0d39" points="406.87,-1084.9 403.04,-1075.03 399.87,-1085.14 406.87,-1084.9"/>
</g>
<!-- t12&#45;&gt;order3 -->
<g id="edge22" class="edge">
<title>t12:&#45;&gt;order3:</title>
<path fill="none" stroke="#ba0d39" d="M386.95,-766.75C389.42,-812.04 396.16,-935.15 399.72,-1000.22"/>
<polygon fill="#ba0d39" stroke="#ba0d39" points="396.25,-1000.73 400.29,-1010.52 403.24,-1000.34 396.25,-1000.73"/>
</g>
<!-- t13&#45;&gt;order4 -->
<g id="edge24" class="edge">
<title>t13:&#45;&gt;order4:</title>
<path fill="none" stroke="#ba0d39" d="M213.56,-926.36C229.13,-912.21 249.15,-894.02 265.67,-879"/>
<polygon fill="#ba0d39" stroke="#ba0d39" points="268.42,-881.23 273.47,-871.92 263.71,-876.05 268.42,-881.23"/>
</g>
<!-- t14&#45;&gt;delivery1 -->
<g id="edge31" class="edge">
<title>t14:&#45;&gt;delivery1:</title>
<path fill="none" stroke="#a13ccd" d="M547.21,-522.13C550.18,-513.72 553.65,-503.89 557.09,-494.15"/>
<polygon fill="#a13ccd" stroke="#a13ccd" points="560.47,-495.08 560.5,-484.49 553.87,-492.75 560.47,-495.08"/>
</g>
<!-- t15&#45;&gt;delivery2 -->
<g id="edge33" class="edge">
<title>t15:&#45;&gt;delivery2:</title>
<path fill="none" stroke="#a13ccd" d="M641.93,-730.22C648,-719.67 656.06,-705.66 663.79,-692.22"/>
<polygon fill="#a13ccd" stroke="#a13ccd" points="666.85,-693.92 668.8,-683.51 660.78,-690.43 666.85,-693.92"/>
</g>
<!-- t15&#45;&gt;delivery5 -->
<g id="edge38" class="edge">
<title>t15:&#45;&gt;delivery5:</title>
<path fill="none" stroke="#a13ccd" d="M619.98,-730.22C612.17,-719 601.64,-703.88 591.75,-689.69"/>
<polygon fill="#a13ccd" stroke="#a13ccd" points="594.62,-687.68 586.03,-681.48 588.87,-691.68 594.62,-687.68"/>
</g>
<!-- t16&#45;&gt;item6 -->
<g id="edge46" class="edge">
<title>t16:&#45;&gt;item6:</title>
<path fill="none" stroke="#05b202" d="M558.24,-1024.72C560.89,-1000.04 569.2,-954.37 595,-926.59 623.48,-895.93 645.16,-910.45 682,-890.59 691.15,-885.65 700.65,-879.65 709.29,-873.8"/>
<polygon fill="#05b202" stroke="#05b202" points="711.36,-876.62 717.58,-868.05 707.37,-870.87 711.36,-876.62"/>
</g>
<!-- t17&#45;&gt;order2 -->
<g id="edge45" class="edge">
<title>t17:&#45;&gt;order2:</title>
<path fill="none" stroke="#ba0d39" d="M462.57,-932.31C465.32,-892.07 466.99,-790.53 422,-724.47 401.66,-694.61 365.34,-674.45 337.07,-662.43"/>
<polygon fill="#ba0d39" stroke="#ba0d39" points="338.03,-659.04 327.45,-658.52 335.39,-665.53 338.03,-659.04"/>
</g>
</g>
</svg>
