<?xml version="1.0" encoding="UTF-8" standalone="no"?>
<!DOCTYPE svg PUBLIC "-//W3C//DTD SVG 1.1//EN"
 "http://www.w3.org/Graphics/SVG/1.1/DTD/svg11.dtd">
<!-- Generated by graphviz version 2.44.2~dev.20201002.0216 (20201002.0216)
 -->
<!-- Pages: 1 -->
<svg width="834pt" height="1267pt"
 viewBox="0.00 0.00 834.00 1267.45" xmlns="http://www.w3.org/2000/svg" xmlns:xlink="http://www.w3.org/1999/xlink">
<g id="graph0" class="graph" transform="scale(1 1) rotate(0) translate(4 1263.45)">
<!-- item1 -->
<g id="node1" class="node">
<title>item1</title>
<ellipse fill="#05b202" stroke="#05b202" cx="236" cy="-1227.24" rx="29.88" ry="29.88"/>
<text text-anchor="middle" x="236" y="-1223.84" font-family="Times New Roman,serif" font-size="13.00">item1</text>
</g>
<!-- t1 -->
<g id="node18" class="node">
<title>t1</title>
<polygon fill="none" stroke="black" points="404,-1159.02 148,-1159.02 148,-1111.02 404,-1111.02 404,-1159.02"/>
<text text-anchor="middle" x="276" y="-1126.22" font-family="Times New Roman,serif" font-size="36.00">Place Order &#160;(t1)</text>
</g>
<!-- item1&#45;&gt;t1 -->
<g id="edge2" class="edge">
<title>item1:&#45;&gt;t1:</title>
<path fill="none" stroke="#05b202" d="M245.96,-1198.85C250.29,-1189.08 255.24,-1177.91 259.78,-1167.68"/>
<path fill="none" stroke="white" d="M247.78,-1199.66C252.12,-1189.89 257.07,-1178.72 261.6,-1168.49"/>
<path fill="none" stroke="#05b202" d="M249.61,-1200.47C253.94,-1190.7 258.9,-1179.53 263.43,-1169.3"/>
<polygon fill="#05b202" stroke="#05b202" points="264.94,-1169.61 265.79,-1159.05 258.54,-1166.77 264.94,-1169.61"/>
</g>
<!-- order1 -->
<g id="node2" class="node">
<title>order1</title>
<ellipse fill="#ba0d39" stroke="#ba0d39" cx="316" cy="-1227.24" rx="32.43" ry="32.43"/>
<text text-anchor="middle" x="316" y="-1223.84" font-family="Times New Roman,serif" font-size="13.00">order1</text>
</g>
<!-- order1&#45;&gt;t1 -->
<g id="edge1" class="edge">
<title>order1:&#45;&gt;t1:</title>
<path fill="none" stroke="#ba0d39" d="M303.12,-1197.19C299.09,-1188.1 294.61,-1177.99 290.47,-1168.66"/>
<polygon fill="#ba0d39" stroke="#ba0d39" points="293.57,-1167.02 286.32,-1159.3 287.17,-1169.86 293.57,-1167.02"/>
</g>
<!-- item2 -->
<g id="node3" class="node">
<title>item2</title>
<ellipse fill="none" stroke="#05b202" cx="236" cy="-1042.8" rx="29.88" ry="29.88"/>
<text text-anchor="middle" x="236" y="-1039.4" font-family="Times New Roman,serif" font-size="13.00">item2</text>
</g>
<!-- t2 -->
<g id="node19" class="node">
<title>t2</title>
<polygon fill="none" stroke="black" points="425,-974.59 127,-974.59 127,-926.59 425,-926.59 425,-974.59"/>
<text text-anchor="middle" x="276" y="-941.79" font-family="Times New Roman,serif" font-size="36.00">Confirm Order &#160;(t2)</text>
</g>
<!-- item2&#45;&gt;t2 -->
<g id="edge6" class="edge">
<title>item2:&#45;&gt;t2:</title>
<path fill="none" stroke="#05b202" d="M245.96,-1014.41C250.29,-1004.65 255.24,-993.48 259.78,-983.25"/>
<path fill="none" stroke="white" d="M247.78,-1015.23C252.12,-1005.46 257.07,-994.29 261.6,-984.06"/>
<path fill="none" stroke="#05b202" d="M249.61,-1016.04C253.94,-1006.27 258.9,-995.1 263.43,-984.87"/>
<polygon fill="#05b202" stroke="#05b202" points="264.94,-985.18 265.79,-974.62 258.54,-982.34 264.94,-985.18"/>
</g>
<!-- order2 -->
<g id="node4" class="node">
<title>order2</title>
<ellipse fill="none" stroke="#ba0d39" cx="316" cy="-1042.8" rx="32.43" ry="32.43"/>
<text text-anchor="middle" x="316" y="-1039.4" font-family="Times New Roman,serif" font-size="13.00">order2</text>
</g>
<!-- order2&#45;&gt;t2 -->
<g id="edge5" class="edge">
<title>order2:&#45;&gt;t2:</title>
<path fill="none" stroke="#ba0d39" d="M303.12,-1012.76C299.09,-1003.66 294.61,-993.56 290.47,-984.23"/>
<polygon fill="#ba0d39" stroke="#ba0d39" points="293.57,-982.59 286.32,-974.86 287.17,-985.42 293.57,-982.59"/>
</g>
<!-- item3 -->
<g id="node5" class="node">
<title>item3</title>
<ellipse fill="none" stroke="#05b202" cx="373" cy="-849.53" rx="29.88" ry="29.88"/>
<text text-anchor="middle" x="373" y="-846.13" font-family="Times New Roman,serif" font-size="13.00">item3</text>
</g>
<!-- t3 -->
<g id="node20" class="node">
<title>t3</title>
<polygon fill="none" stroke="black" points="598,-772.47 376,-772.47 376,-724.47 598,-724.47 598,-772.47"/>
<text text-anchor="middle" x="487" y="-739.67" font-family="Times New Roman,serif" font-size="36.00">Pick Item &#160;(t3)</text>
</g>
<!-- item3&#45;&gt;t3 -->
<g id="edge9" class="edge">
<title>item3:&#45;&gt;t3:</title>
<path fill="none" stroke="#05b202" d="M394.98,-829.43C411.29,-815.26 433.83,-795.67 452.53,-779.43"/>
<polygon fill="#05b202" stroke="#05b202" points="455.02,-781.9 460.27,-772.7 450.43,-776.61 455.02,-781.9"/>
</g>
<!-- item4 -->
<g id="node6" class="node">
<title>item4</title>
<ellipse fill="none" stroke="#05b202" cx="523" cy="-647.41" rx="29.88" ry="29.88"/>
<text text-anchor="middle" x="523" y="-644.01" font-family="Times New Roman,serif" font-size="13.00">item4</text>
</g>
<!-- t4 -->
<g id="node21" class="node">
<title>t4</title>
<polygon fill="none" stroke="black" points="731.5,-570.35 476.5,-570.35 476.5,-522.35 731.5,-522.35 731.5,-570.35"/>
<text text-anchor="middle" x="604" y="-537.55" font-family="Times New Roman,serif" font-size="36.00">Load Cargo &#160;(t4)</text>
</g>
<!-- item4&#45;&gt;t4 -->
<g id="edge18" class="edge">
<title>item4:&#45;&gt;t4:</title>
<path fill="none" stroke="#05b202" d="M539.83,-622.67C550.86,-609.18 565.04,-591.84 577.12,-577.07"/>
<path fill="none" stroke="white" d="M541.38,-623.93C552.41,-610.45 566.59,-593.1 578.67,-578.33"/>
<path fill="none" stroke="#05b202" d="M542.93,-625.2C553.96,-611.71 568.14,-594.37 580.22,-579.6"/>
<polygon fill="#05b202" stroke="#05b202" points="581.51,-580.39 585.13,-570.43 576.09,-575.96 581.51,-580.39"/>
</g>
<!-- item5 -->
<g id="node7" class="node">
<title>item5</title>
<ellipse fill="none" stroke="#05b202" cx="648" cy="-445.29" rx="29.88" ry="29.88"/>
<text text-anchor="middle" x="648" y="-441.89" font-family="Times New Roman,serif" font-size="13.00">item5</text>
</g>
<!-- t6 -->
<g id="node23" class="node">
<title>t6</title>
<polygon fill="none" stroke="black" points="727,-368.24 479,-368.24 479,-320.24 727,-320.24 727,-368.24"/>
<text text-anchor="middle" x="603" y="-335.44" font-family="Times New Roman,serif" font-size="36.00">Start Route &#160;(t6)</text>
</g>
<!-- item5&#45;&gt;t6 -->
<g id="edge22" class="edge">
<title>item5:&#45;&gt;t6:</title>
<path fill="none" stroke="#05b202" d="M634.24,-418.84C628.58,-406.38 621.77,-391.39 615.81,-378.26"/>
<path fill="none" stroke="white" d="M636.06,-418.01C630.4,-405.56 623.59,-390.57 617.63,-377.44"/>
<path fill="none" stroke="#05b202" d="M637.88,-417.18C632.22,-404.73 625.41,-389.74 619.45,-376.61"/>
<polygon fill="#05b202" stroke="#05b202" points="620.79,-375.93 613.46,-368.27 614.41,-378.82 620.79,-375.93"/>
</g>
<!-- item6 -->
<g id="node8" class="node">
<title>item6</title>
<ellipse fill="none" stroke="#05b202" cx="559" cy="-243.18" rx="29.88" ry="29.88"/>
<text text-anchor="middle" x="559" y="-239.78" font-family="Times New Roman,serif" font-size="13.00">item6</text>
</g>
<!-- t7 -->
<g id="node24" class="node">
<title>t7</title>
<polygon fill="none" stroke="black" points="721.5,-166.12 484.5,-166.12 484.5,-118.12 721.5,-118.12 721.5,-166.12"/>
<text text-anchor="middle" x="603" y="-133.32" font-family="Times New Roman,serif" font-size="36.00">End Route &#160;(t7)</text>
</g>
<!-- item6&#45;&gt;t7 -->
<g id="edge26" class="edge">
<title>item6:&#45;&gt;t7:</title>
<path fill="none" stroke="#05b202" d="M568.96,-214.82C574.4,-202.58 580.9,-187.93 586.64,-175.02"/>
<path fill="none" stroke="white" d="M570.79,-215.63C576.23,-203.39 582.73,-188.75 588.47,-175.83"/>
<path fill="none" stroke="#05b202" d="M572.62,-216.44C578.06,-204.2 584.56,-189.56 590.3,-176.64"/>
<polygon fill="#05b202" stroke="#05b202" points="591.81,-176.92 592.68,-166.36 585.42,-174.08 591.81,-176.92"/>
</g>
<!-- item7 -->
<g id="node9" class="node">
<title>item7</title>
<ellipse fill="none" stroke="#05b202" cx="559" cy="-41.06" rx="29.88" ry="29.88"/>
<text text-anchor="middle" x="559" y="-37.66" font-family="Times New Roman,serif" font-size="13.00">item7</text>
</g>
<!-- order3 -->
<g id="node10" class="node">
<title>order3</title>
<ellipse fill="none" stroke="#ba0d39" cx="236" cy="-849.53" rx="32.43" ry="32.43"/>
<text text-anchor="middle" x="236" y="-846.13" font-family="Times New Roman,serif" font-size="13.00">order3</text>
</g>
<!-- t8 -->
<g id="node25" class="node">
<title>t8</title>
<polygon fill="none" stroke="black" points="358,-772.47 0,-772.47 0,-724.47 358,-724.47 358,-772.47"/>
<text text-anchor="middle" x="179" y="-739.67" font-family="Times New Roman,serif" font-size="36.00">Payment Reminder &#160;(t8)</text>
</g>
<!-- order3&#45;&gt;t8 -->
<g id="edge11" class="edge">
<title>order3:&#45;&gt;t8:</title>
<path fill="none" stroke="#ba0d39" d="M220.27,-821.2C213.22,-808.94 204.85,-794.4 197.5,-781.62"/>
<polygon fill="#ba0d39" stroke="#ba0d39" points="200.38,-779.61 192.36,-772.69 194.31,-783.1 200.38,-779.61"/>
</g>
<!-- order4 -->
<g id="node11" class="node">
<title>order4</title>
<ellipse fill="none" stroke="#ba0d39" cx="179" cy="-647.41" rx="32.43" ry="32.43"/>
<text text-anchor="middle" x="179" y="-644.01" font-family="Times New Roman,serif" font-size="13.00">order4</text>
</g>
<!-- t9 -->
<g id="node26" class="node">
<title>t9</title>
<polygon fill="none" stroke="black" points="295,-570.35 63,-570.35 63,-522.35 295,-522.35 295,-570.35"/>
<text text-anchor="middle" x="179" y="-537.55" font-family="Times New Roman,serif" font-size="36.00">Pay Order &#160;(t9)</text>
</g>
<!-- order4&#45;&gt;t9 -->
<g id="edge13" class="edge">
<title>order4:&#45;&gt;t9:</title>
<path fill="none" stroke="#ba0d39" d="M179,-615.07C179,-604.16 179,-591.88 179,-580.81"/>
<polygon fill="#ba0d39" stroke="#ba0d39" points="182.5,-580.64 179,-570.64 175.5,-580.64 182.5,-580.64"/>
</g>
<!-- order5 -->
<g id="node12" class="node">
<title>order5</title>
<ellipse fill="none" stroke="#ba0d39" cx="179" cy="-445.29" rx="32.43" ry="32.43"/>
<text text-anchor="middle" x="179" y="-441.89" font-family="Times New Roman,serif" font-size="13.00">order5</text>
</g>
<!-- delivery1 -->
<g id="node13" class="node">
<title>delivery1</title>
<ellipse fill="none" stroke="#a13ccd" cx="721" cy="-849.53" rx="41.12" ry="41.12"/>
<text text-anchor="middle" x="721" y="-846.13" font-family="Times New Roman,serif" font-size="13.00">delivery1</text>
</g>
<!-- t5 -->
<g id="node22" class="node">
<title>t5</title>
<polygon fill="none" stroke="black" points="826,-772.47 616,-772.47 616,-724.47 826,-724.47 826,-772.47"/>
<text text-anchor="middle" x="721" y="-739.67" font-family="Times New Roman,serif" font-size="36.00">Fuel Car &#160;(t5)</text>
</g>
<!-- delivery1&#45;&gt;t5 -->
<g id="edge15" class="edge">
<title>delivery1:&#45;&gt;t5:</title>
<path fill="none" stroke="#a13ccd" d="M721,-808.24C721,-799.82 721,-791.04 721,-782.9"/>
<polygon fill="#a13ccd" stroke="#a13ccd" points="724.5,-782.67 721,-772.67 717.5,-782.67 724.5,-782.67"/>
</g>
<!-- delivery2 -->
<g id="node14" class="node">
<title>delivery2</title>
<ellipse fill="none" stroke="#a13ccd" cx="684" cy="-647.41" rx="41.12" ry="41.12"/>
<text text-anchor="middle" x="684" y="-644.01" font-family="Times New Roman,serif" font-size="13.00">delivery2</text>
</g>
<!-- delivery2&#45;&gt;t4 -->
<g id="edge17" class="edge">
<title>delivery2:&#45;&gt;t4:</title>
<path fill="none" stroke="#a13ccd" d="M658.69,-615.07C649.24,-603.37 638.52,-590.1 629.1,-578.43"/>
<polygon fill="#a13ccd" stroke="#a13ccd" points="631.81,-576.22 622.81,-570.64 626.37,-580.62 631.81,-576.22"/>
</g>
<!-- delivery3 -->
<g id="node15" class="node">
<title>delivery3</title>
<ellipse fill="none" stroke="#a13ccd" cx="559" cy="-445.29" rx="41.12" ry="41.12"/>
<text text-anchor="middle" x="559" y="-441.89" font-family="Times New Roman,serif" font-size="13.00">delivery3</text>
</g>
<!-- delivery3&#45;&gt;t6 -->
<g id="edge21" class="edge">
<title>delivery3:&#45;&gt;t6:</title>
<path fill="none" stroke="#a13ccd" d="M575.38,-407.41C579.75,-397.59 584.42,-387.06 588.66,-377.51"/>
<polygon fill="#a13ccd" stroke="#a13ccd" points="591.87,-378.91 592.73,-368.35 585.48,-376.07 591.87,-378.91"/>
</g>
<!-- delivery4 -->
<g id="node16" class="node">
<title>delivery4</title>
<ellipse fill="none" stroke="#a13ccd" cx="648" cy="-243.18" rx="41.12" ry="41.12"/>
<text text-anchor="middle" x="648" y="-239.78" font-family="Times New Roman,serif" font-size="13.00">delivery4</text>
</g>
<!-- delivery4&#45;&gt;t7 -->
<g id="edge25" class="edge">
<title>delivery4:&#45;&gt;t7:</title>
<path fill="none" stroke="#a13ccd" d="M631.37,-205.57C626.9,-195.73 622.1,-185.17 617.74,-175.57"/>
<polygon fill="#a13ccd" stroke="#a13ccd" points="620.88,-174.02 613.56,-166.36 614.51,-176.92 620.88,-174.02"/>
</g>
<!-- delivery5 -->
<g id="node17" class="node">
<title>delivery5</title>
<ellipse fill="none" stroke="#a13ccd" cx="648" cy="-41.06" rx="41.12" ry="41.12"/>
<text text-anchor="middle" x="648" y="-37.66" font-family="Times New Roman,serif" font-size="13.00">delivery5</text>
</g>
<!-- t1&#45;&gt;item2 -->
<g id="edge4" class="edge">
<title>t1:&#45;&gt;item2:</title>
<path fill="none" stroke="#05b202" d="M263.87,-1111.6C259.65,-1102.09 254.68,-1090.86 250.01,-1080.34"/>
<path fill="none" stroke="white" d="M265.7,-1110.79C261.48,-1101.27 256.5,-1090.05 251.84,-1079.53"/>
<path fill="none" stroke="#05b202" d="M267.53,-1109.98C263.31,-1100.46 258.33,-1089.24 253.67,-1078.72"/>
<polygon fill="#05b202" stroke="#05b202" points="254.93,-1077.87 247.68,-1070.15 248.53,-1080.71 254.93,-1077.87"/>
</g>
<!-- t1&#45;&gt;order2 -->
<g id="edge3" class="edge">
<title>t1:&#45;&gt;order2:</title>
<path fill="none" stroke="#ba0d39" d="M286.3,-1110.79C290.23,-1101.93 294.82,-1091.58 299.2,-1081.7"/>
<polygon fill="#ba0d39" stroke="#ba0d39" points="302.45,-1083 303.3,-1072.44 296.05,-1080.17 302.45,-1083"/>
</g>
<!-- t2&#45;&gt;item3 -->
<g id="edge8" class="edge">
<title>t2:&#45;&gt;item3:</title>
<path fill="none" stroke="#05b202" d="M297.31,-924.97C311.24,-910.75 329.15,-892.45 343.9,-877.39"/>
<path fill="none" stroke="white" d="M298.74,-926.36C312.67,-912.15 330.58,-893.85 345.32,-878.79"/>
<path fill="none" stroke="#05b202" d="M300.17,-927.76C314.1,-913.54 332.01,-895.25 346.75,-880.19"/>
<polygon fill="#05b202" stroke="#05b202" points="348.21,-880.85 352.71,-871.25 343.21,-875.95 348.21,-880.85"/>
</g>
<!-- t2&#45;&gt;order3 -->
<g id="edge7" class="edge">
<title>t2:&#45;&gt;order3:</title>
<path fill="none" stroke="#ba0d39" d="M266.62,-926.36C262.13,-915.25 256.64,-901.64 251.55,-889.03"/>
<polygon fill="#ba0d39" stroke="#ba0d39" points="254.75,-887.6 247.76,-879.64 248.25,-890.23 254.75,-887.6"/>
</g>
<!-- t3&#45;&gt;item4 -->
<g id="edge10" class="edge">
<title>t3:&#45;&gt;item4:</title>
<path fill="none" stroke="#05b202" d="M495.44,-724.25C499.65,-712.67 504.83,-698.4 509.57,-685.37"/>
<polygon fill="#05b202" stroke="#05b202" points="512.95,-686.3 513.08,-675.71 506.37,-683.91 512.95,-686.3"/>
</g>
<!-- t4&#45;&gt;item5 -->
<g id="edge19" class="edge">
<title>t4:&#45;&gt;item5:</title>
<path fill="none" stroke="#05b202" d="M612.49,-521.32C617.76,-509.44 624.3,-494.73 630.2,-481.43"/>
<path fill="none" stroke="white" d="M614.32,-522.13C619.59,-510.26 626.12,-495.54 632.03,-482.25"/>
<path fill="none" stroke="#05b202" d="M616.14,-522.94C621.42,-511.07 627.95,-496.36 633.86,-483.06"/>
<polygon fill="#05b202" stroke="#05b202" points="635.33,-483.43 636.19,-472.87 628.94,-480.59 635.33,-483.43"/>
</g>
<!-- t4&#45;&gt;delivery3 -->
<g id="edge20" class="edge">
<title>t4:&#45;&gt;delivery3:</title>
<path fill="none" stroke="#a13ccd" d="M593.45,-522.13C589.39,-513.2 584.6,-502.66 579.91,-492.32"/>
<polygon fill="#a13ccd" stroke="#a13ccd" points="582.97,-490.6 575.65,-482.94 576.6,-493.49 582.97,-490.6"/>
</g>
<!-- t5&#45;&gt;delivery2 -->
<g id="edge16" class="edge">
<title>t5:&#45;&gt;delivery2:</title>
<path fill="none" stroke="#a13ccd" d="M712.33,-724.25C709.12,-715.67 705.36,-705.6 701.65,-695.66"/>
<polygon fill="#a13ccd" stroke="#a13ccd" points="704.9,-694.36 698.12,-686.22 698.34,-696.81 704.9,-694.36"/>
</g>
<!-- t6&#45;&gt;item6 -->
<g id="edge23" class="edge">
<title>t6:&#45;&gt;item6:</title>
<path fill="none" stroke="#05b202" d="M590.86,-320.82C585.58,-308.95 579.05,-294.24 573.14,-280.94"/>
<path fill="none" stroke="white" d="M592.68,-320.01C587.41,-308.14 580.88,-293.43 574.97,-280.13"/>
<path fill="none" stroke="#05b202" d="M594.51,-319.2C589.24,-307.33 582.7,-292.61 576.8,-279.32"/>
<polygon fill="#05b202" stroke="#05b202" points="578.06,-278.47 570.81,-270.76 571.67,-281.32 578.06,-278.47"/>
</g>
<!-- t6&#45;&gt;delivery4 -->
<g id="edge24" class="edge">
<title>t6:&#45;&gt;delivery4:</title>
<path fill="none" stroke="#a13ccd" d="M613.55,-320.01C617.61,-311.08 622.4,-300.54 627.09,-290.2"/>
<polygon fill="#a13ccd" stroke="#a13ccd" points="630.4,-291.38 631.35,-280.82 624.03,-288.48 630.4,-291.38"/>
</g>
<!-- t7&#45;&gt;item7 -->
<g id="edge27" class="edge">
<title>t7:&#45;&gt;item7:</title>
<path fill="none" stroke="#05b202" d="M590.86,-118.7C585.58,-106.83 579.05,-92.12 573.14,-78.82"/>
<path fill="none" stroke="white" d="M592.68,-117.89C587.41,-106.02 580.88,-91.31 574.97,-78.01"/>
<path fill="none" stroke="#05b202" d="M594.51,-117.08C589.24,-105.21 582.7,-90.5 576.8,-77.2"/>
<polygon fill="#05b202" stroke="#05b202" points="578.06,-76.36 570.81,-68.64 571.67,-79.2 578.06,-76.36"/>
</g>
<!-- t7&#45;&gt;delivery5 -->
<g id="edge28" class="edge">
<title>t7:&#45;&gt;delivery5:</title>
<path fill="none" stroke="#a13ccd" d="M613.55,-117.89C617.61,-108.96 622.4,-98.42 627.09,-88.09"/>
<polygon fill="#a13ccd" stroke="#a13ccd" points="630.4,-89.26 631.35,-78.71 624.03,-86.36 630.4,-89.26"/>
</g>
<!-- t8&#45;&gt;order4 -->
<g id="edge12" class="edge">
<title>t8:&#45;&gt;order4:</title>
<path fill="none" stroke="#ba0d39" d="M179,-724.25C179,-713.99 179,-701.6 179,-689.84"/>
<polygon fill="#ba0d39" stroke="#ba0d39" points="182.5,-689.74 179,-679.74 175.5,-689.74 182.5,-689.74"/>
</g>
<!-- t9&#45;&gt;order5 -->
<g id="edge14" class="edge">
<title>t9:&#45;&gt;order5:</title>
<path fill="none" stroke="#ba0d39" d="M179,-522.13C179,-511.87 179,-499.48 179,-487.73"/>
<polygon fill="#ba0d39" stroke="#ba0d39" points="182.5,-487.62 179,-477.62 175.5,-487.62 182.5,-487.62"/>
</g>
</g>
</svg>
